<svg width="289" height="5963" viewBox="0 0 289 5963" fill="none" xmlns="http://www.w3.org/2000/svg">
<path fill-rule="evenodd" clip-rule="evenodd" d="M288.99 5395.91V5942.94L227.31 5937.29H188.71L231.93 5771.53L182.89 5668.56L288.99 5395.91Z" fill="#020202"/>
<path d="M287.31 5660.9L252.2 5730.16L99.58 5962.88L287.31 5961.5V5660.9Z" fill="#020202"/>
<path fill-rule="evenodd" clip-rule="evenodd" d="M286.89 5110.92V5013.5L244.1 4970.91L199 5017.64L286.89 5110.92Z" fill="url(#paint0_linear_173_3)"/>
<path fill-rule="evenodd" clip-rule="evenodd" d="M288.99 4923.81L244.1 4970.91L200.54 4923.81L288.85 4831L288.99 4923.81Z" fill="url(#paint1_linear_173_3)"/>
<path fill-rule="evenodd" clip-rule="evenodd" d="M155.82 4970.48L200.54 4923.81V4970.48H155.82Z" fill="url(#paint2_linear_173_3)"/>
<path fill-rule="evenodd" clip-rule="evenodd" d="M0.699951 0.39L87.27 0L130.1 44.15L87.9301 86.88L0.699951 0.39Z" fill="url(#paint3_linear_173_3)"/>
<path fill-rule="evenodd" clip-rule="evenodd" d="M173.89 0.02L130.1 43.83L172.61 85.1L257.79 0L173.89 0.02Z" fill="url(#paint4_linear_173_3)"/>
<path fill-rule="evenodd" clip-rule="evenodd" d="M288.67 370.5L288.99 0.330078H260.25L221.32 39.2601V129.96L152.16 199.12L288.67 370.5Z" fill="#7C7C7C"/>
<path fill-rule="evenodd" clip-rule="evenodd" d="M130.11 128.34L172.4 85.79H130.11V128.34Z" fill="url(#paint5_linear_173_3)"/>
<path d="M286.99 866.5L245.64 903.89L146.99 1121.5L288.99 1450.5L286.99 866.5Z" fill="url(#paint6_linear_173_3)"/>
<path d="M288.99 642.5L211.24 813.81L288.99 997.5V642.5Z" fill="#7C7C7C"/>
<path fill-rule="evenodd" clip-rule="evenodd" d="M288.59 733.86L288.99 676.46L248.14 642.43L222.71 667.53L288.59 733.86Z" fill="url(#paint7_linear_173_3)"/>
<path fill-rule="evenodd" clip-rule="evenodd" d="M287.86 602.74L248.14 642.43L223.57 617.13L288.99 540.5L287.86 602.74Z" fill="url(#paint8_linear_173_3)"/>
<path d="M288.99 4813.7L109.89 4616.13L194.32 4451.93L109.89 4241.02L288.99 3515.88V4813.7Z" fill="#B2B2B2"/>
<path d="M287.51 4698.52L141.4 4419.88L288.99 3887.35L287.51 4698.52Z" fill="url(#paint9_linear_173_3)"/>
<path fill-rule="evenodd" clip-rule="evenodd" d="M288.77 2034.19L288.99 1664.02L193.49 1862.81L288.77 2034.19Z" fill="#7C7C7C"/>
<path fill-rule="evenodd" clip-rule="evenodd" d="M288.6 1511.77L288.99 1598.7L244.65 1641.72L201.74 1599.37L288.6 1511.77Z" fill="url(#paint10_linear_173_3)"/>
<path fill-rule="evenodd" clip-rule="evenodd" d="M288.64 1685.7L244.65 1641.72L203.2 1684.4L288.66 1769.95L288.64 1685.7Z" fill="url(#paint11_linear_173_3)"/>
<path fill-rule="evenodd" clip-rule="evenodd" d="M201.49 1681.72L201.24 1601.12L161.07 1641.3L201.49 1681.72Z" fill="url(#paint12_linear_173_3)"/>
<defs>
<linearGradient id="paint0_linear_173_3" x1="240.82" y1="4836.69" x2="243.85" y2="5091.35" gradientUnits="userSpaceOnUse">
<stop stop-color="#FBBD00"/>
<stop offset="1" stop-color="#FFEB00"/>
</linearGradient>
<linearGradient id="paint1_linear_173_3" x1="244.21" y1="4836.65" x2="247.24" y2="5091.31" gradientUnits="userSpaceOnUse">
<stop stop-color="#FBBD00"/>
<stop offset="1" stop-color="#FFEB00"/>
</linearGradient>
<linearGradient id="paint2_linear_173_3" x1="176.87" y1="4837.45" x2="179.9" y2="5092.11" gradientUnits="userSpaceOnUse">
<stop offset="0.31" stop-color="#FBBD00"/>
<stop offset="1" stop-color="#FFEB00"/>
</linearGradient>
<linearGradient id="paint3_linear_173_3" x1="64.02" y1="156.64" x2="65.53" y2="9.61" gradientUnits="userSpaceOnUse">
<stop stop-color="#FBBD00"/>
<stop offset="1" stop-color="#FFEB00"/>
</linearGradient>
<linearGradient id="paint4_linear_173_3" x1="192.54" y1="157.96" x2="194.06" y2="10.93" gradientUnits="userSpaceOnUse">
<stop stop-color="#FBBD00"/>
<stop offset="1" stop-color="#FFEB00"/>
</linearGradient>
<linearGradient id="paint5_linear_173_3" x1="150.51" y1="157.53" x2="152.03" y2="10.5" gradientUnits="userSpaceOnUse">
<stop offset="0.31" stop-color="#FBBD00"/>
<stop offset="1" stop-color="#FFEB00"/>
</linearGradient>
<linearGradient id="paint6_linear_173_3" x1="338.84" y1="905.15" x2="226.29" y2="1259.84" gradientUnits="userSpaceOnUse">
<stop offset="0.17" stop-color="#FBBD00"/>
<stop offset="1" stop-color="#FFEB00"/>
</linearGradient>
<linearGradient id="paint7_linear_173_3" x1="266.81" y1="755.74" x2="245.59" y2="593.55" gradientUnits="userSpaceOnUse">
<stop stop-color="#FBBD00"/>
<stop offset="1" stop-color="#FFEB00"/>
</linearGradient>
<linearGradient id="paint8_linear_173_3" x1="279.22" y1="754.12" x2="258" y2="591.93" gradientUnits="userSpaceOnUse">
<stop stop-color="#FBBD00"/>
<stop offset="1" stop-color="#FFEB00"/>
</linearGradient>
<linearGradient id="paint9_linear_173_3" x1="221.82" y1="4702.18" x2="212.72" y2="3948.84" gradientUnits="userSpaceOnUse">
<stop stop-color="#FBBD00"/>
<stop offset="1" stop-color="#FFEB00"/>
</linearGradient>
<linearGradient id="paint10_linear_173_3" x1="248.34" y1="1481.74" x2="242.27" y2="1721.24" gradientUnits="userSpaceOnUse">
<stop offset="0.19" stop-color="#FBBD00"/>
<stop offset="1" stop-color="#FFEB00"/>
</linearGradient>
<linearGradient id="paint11_linear_173_3" x1="252.14" y1="1481.84" x2="246.08" y2="1721.33" gradientUnits="userSpaceOnUse">
<stop stop-color="#FBBD00"/>
<stop offset="1" stop-color="#FFEB00"/>
</linearGradient>
<linearGradient id="paint12_linear_173_3" x1="185.87" y1="1480.16" x2="179.81" y2="1719.65" gradientUnits="userSpaceOnUse">
<stop offset="0.31" stop-color="#FBBD00"/>
<stop offset="1" stop-color="#FFEB00"/>
</linearGradient>
</defs>
</svg>
