<svg width="290" height="5963" viewBox="0 0 290 5963" fill="none" xmlns="http://www.w3.org/2000/svg">
<path fill-rule="evenodd" clip-rule="evenodd" d="M289.82 5962.47L202.89 5962.88L159.87 5916.32L202.22 5871.27L289.82 5962.47Z" fill="url(#paint0_linear_173_2)"/>
<path fill-rule="evenodd" clip-rule="evenodd" d="M115.9 5962.52L159.87 5916.32L117.19 5872.8L31.65 5962.54L115.9 5962.52Z" fill="url(#paint1_linear_173_2)"/>
<path fill-rule="evenodd" clip-rule="evenodd" d="M0.32 5573.86L0 5962.54H28.74L67.67 5921.66V5826.42L136.83 5753.81L0.32 5573.86Z" fill="#7C7C7C"/>
<path fill-rule="evenodd" clip-rule="evenodd" d="M159.87 5828.12L117.58 5872.8H159.87V5828.12Z" fill="url(#paint2_linear_173_2)"/>
<path d="M2 5053.07L43.35 5013.81L142 4785.32L0 4439.88L2 5053.07Z" fill="url(#paint3_linear_173_2)"/>
<path d="M0 5288.26L77.75 5108.39L0 4915.52V5288.26Z" fill="#B2B2B2"/>
<path fill-rule="evenodd" clip-rule="evenodd" d="M0.4 5192.34L0 5252.61L40.85 5288.34L66.28 5261.98L0.4 5192.34Z" fill="url(#paint4_linear_173_2)"/>
<path fill-rule="evenodd" clip-rule="evenodd" d="M1.13 5330.02L40.85 5288.34L65.42 5314.9L0 5395.36L1.13 5330.02Z" fill="url(#paint5_linear_173_2)"/>
<path fill-rule="evenodd" clip-rule="evenodd" d="M0.48999 539.98V18.99L62.17 24.37H100.77L57.55 182.24L106.59 280.31L0.48999 539.98Z" fill="black"/>
<path d="M2.16998 287.61L37.28 221.64L189.9 0L2.16998 1.32V287.61Z" fill="black"/>
<path fill-rule="evenodd" clip-rule="evenodd" d="M2.09998 811.4V904.18L44.89 944.75L89.99 900.24L2.09998 811.4Z" fill="url(#paint6_linear_173_2)"/>
<path fill-rule="evenodd" clip-rule="evenodd" d="M0 989.61L44.89 944.75L88.45 989.61L0.14 1078L0 989.61Z" fill="url(#paint7_linear_173_2)"/>
<path d="M1.25 1324.54L89 1164.72L0 958.51L1.25 1324.54Z" fill="#7C7C7C"/>
<path d="M0 1519.98L159.54 1695.99L84.33 1842.27L159.54 2030.15L0 2676.13V1519.98Z" fill="#B2B2B2"/>
<path d="M1.32 1622.59L89.48 1885.1L0 2345.2L1.32 1622.59Z" fill="url(#paint8_linear_173_2)"/>
<path d="M1.48 2987.88L147.59 3737.61L0 4270.13L1.48 2987.88Z" fill="url(#paint9_linear_173_2)"/>
<path d="M1.49 3750.88L78.49 4273.17L0 4567.88L1.49 3750.88Z" fill="#7C7C7C"/>
<defs>
<linearGradient id="paint0_linear_173_2" x1="226.07" y1="5808.67" x2="224.55" y2="5970.86" gradientUnits="userSpaceOnUse">
<stop stop-color="#FBBD00"/>
<stop offset="1" stop-color="#FFEB00"/>
</linearGradient>
<linearGradient id="paint1_linear_173_2" x1="96.99" y1="5807.46" x2="95.48" y2="5969.65" gradientUnits="userSpaceOnUse">
<stop stop-color="#FBBD00"/>
<stop offset="1" stop-color="#FFEB00"/>
</linearGradient>
<linearGradient id="paint2_linear_173_2" x1="139.34" y1="5807.86" x2="137.82" y2="5970.04" gradientUnits="userSpaceOnUse">
<stop offset="0.31" stop-color="#FBBD00"/>
<stop offset="1" stop-color="#FFEB00"/>
</linearGradient>
<linearGradient id="paint3_linear_173_2" x1="74.36" y1="4443.39" x2="62.23" y2="5054.26" gradientUnits="userSpaceOnUse">
<stop offset="0.17" stop-color="#FBBD00"/>
<stop offset="1" stop-color="#FFEB00"/>
</linearGradient>
<linearGradient id="paint4_linear_173_2" x1="20.97" y1="5422.01" x2="33.09" y2="5231.02" gradientUnits="userSpaceOnUse">
<stop stop-color="#FBBD00"/>
<stop offset="1" stop-color="#FFEB00"/>
</linearGradient>
<linearGradient id="paint5_linear_173_2" x1="26.93" y1="5422.39" x2="39.05" y2="5231.4" gradientUnits="userSpaceOnUse">
<stop stop-color="#FBBD00"/>
<stop offset="1" stop-color="#FFEB00"/>
</linearGradient>
<linearGradient id="paint6_linear_173_2" x1="48.29" y1="1107.51" x2="45.26" y2="830.12" gradientUnits="userSpaceOnUse">
<stop stop-color="#FBBD00"/>
<stop offset="1" stop-color="#FFEB00"/>
</linearGradient>
<linearGradient id="paint7_linear_173_2" x1="45.11" y1="1107.54" x2="42.07" y2="830.15" gradientUnits="userSpaceOnUse">
<stop stop-color="#FBBD00"/>
<stop offset="1" stop-color="#FFEB00"/>
</linearGradient>
<linearGradient id="paint8_linear_173_2" x1="46.18" y1="1638.48" x2="41.63" y2="2316.03" gradientUnits="userSpaceOnUse">
<stop stop-color="#FBBD00"/>
<stop offset="1" stop-color="#FFEB00"/>
</linearGradient>
<linearGradient id="paint9_linear_173_2" x1="79.21" y1="4268.51" x2="53.45" y2="3010.41" gradientUnits="userSpaceOnUse">
<stop stop-color="#FBBD00"/>
<stop offset="1" stop-color="#FFEB00"/>
</linearGradient>
</defs>
</svg>
