<svg width="53" height="56" viewBox="0 0 53 56" fill="none" xmlns="http://www.w3.org/2000/svg">
<path d="M25.18 55.2598L23.47 55.1001C20.2053 54.7609 17.037 53.793 14.14 52.25C8.32145 49.2284 3.84961 44.1317 1.60999 37.9697C0.32926 34.5353 -0.199301 30.8662 0.0600005 27.21C0.320957 22.8076 1.69745 18.5437 4.06 14.8198C4.0901 14.7822 4.11688 14.742 4.14002 14.6997C4.30002 15.3797 4.45 16.0597 4.62 16.6997C4.79 17.3397 5 18.1797 5.18 18.9297C5.22528 19.0831 5.22528 19.2465 5.18 19.3999C3.61047 22.8153 2.92282 26.5698 3.18 30.3198C3.36231 33.5349 4.22393 36.6749 5.70801 39.5327C7.19209 42.3906 9.26498 44.9014 11.79 46.8999C14.9631 49.5023 18.788 51.1866 22.85 51.77C25.2414 52.1284 27.6739 52.1112 30.06 51.7197C30.166 51.7053 30.2739 51.723 30.37 51.77C31.67 52.47 32.97 53.1899 34.26 53.8999C34.26 53.8999 34.26 53.9 34.33 53.98C33.76 54.14 33.2 54.3097 32.64 54.4497C31.0024 54.8634 29.3273 55.1116 27.64 55.1899C27.5601 55.1851 27.48 55.1851 27.4 55.1899L25.18 55.2598Z" fill="#7C7C7C"/>
<path d="M16.24 18.1604C17.4469 22.9243 19.5697 27.4074 22.49 31.3601C25.3759 35.3281 29.0966 38.6151 33.39 40.99C33.77 40.17 34.12 39.3503 34.52 38.5603C35.3312 36.8988 36.4708 35.4189 37.87 34.2102C38.326 33.8659 38.815 33.5676 39.33 33.3201C39.5393 33.2176 39.7714 33.1706 40.0041 33.1829C40.2368 33.1951 40.4626 33.2665 40.66 33.3904C41.7083 34.0024 42.6844 34.7302 43.57 35.5603C45.4039 37.1386 47.0033 38.9703 48.32 41.0002C48.97 41.9393 49.4006 43.0125 49.58 44.1404C49.6348 44.5318 49.6348 44.9286 49.58 45.3201C49.5209 45.715 49.3135 46.0726 49 46.3201C47.37 47.6601 45.78 49.0401 44.14 50.3201C43.2121 51.0888 42.1211 51.6361 40.95 51.9202C39.6094 52.1945 38.2176 52.0656 36.95 51.55C35.3615 50.9634 33.8476 50.1916 32.44 49.2502C29.75 47.4902 27.07 45.7204 24.44 43.8704C23.3543 43.0366 22.3285 42.1275 21.37 41.1501C18.64 38.6146 16.2651 35.7217 14.31 32.55C12.7536 29.9226 11.4574 27.1496 10.44 24.2703C9.78 22.4803 9.08998 20.6903 8.54998 18.8503C7.85216 16.6391 7.31742 14.3795 6.95001 12.0901C6.75736 11 6.83137 9.87972 7.1657 8.82446C7.50004 7.7692 8.08477 6.81027 8.86999 6.03003C9.89909 4.97496 11.0352 4.03004 12.26 3.2102C13.26 2.5402 14.26 1.91001 15.26 1.26001C15.6547 0.985566 16.1199 0.830468 16.6003 0.812741C17.0807 0.795013 17.5562 0.915793 17.97 1.1604C18.7463 1.58808 19.4269 2.16997 19.97 2.87036C21.2216 4.43153 22.27 6.14483 23.09 7.96997C23.77 9.39997 24.38 10.86 25.02 12.3C25.1642 12.6252 25.2162 12.9839 25.1703 13.3367C25.1245 13.6894 24.9825 14.0225 24.76 14.3C24.3299 14.8391 23.8003 15.2907 23.2 15.6301C21.5863 16.5289 19.8568 17.2018 18.06 17.6301C17.47 17.8601 16.88 18.0004 16.24 18.1604Z" fill="url(#paint0_linear_101_11)" stroke="#7C7C7C" stroke-miterlimit="10"/>
<path d="M50.75 38.8099C50.22 38.1199 49.75 37.4399 49.18 36.8099C48.99 36.5699 48.79 36.3297 48.58 36.1097C48.523 36.0515 48.4841 35.9782 48.4681 35.8983C48.4521 35.8183 48.4597 35.7356 48.49 35.66C49.2063 33.3221 49.5439 30.8844 49.49 28.4398C49.425 25.3999 48.7616 22.4028 47.5377 19.6194C46.3138 16.8361 44.5533 14.3211 42.3569 12.2186C40.1605 10.116 37.5713 8.46691 34.7372 7.36553C31.9032 6.26416 28.8798 5.73191 25.84 5.79962C25.7481 5.8125 25.6544 5.79411 25.5745 5.74688C25.4946 5.69965 25.4331 5.6266 25.4 5.53985C24.92 4.67985 24.4 3.81977 23.93 2.95977L23.76 2.66973C32.56 2.07973 40.01 4.84991 45.92 11.3499C49.2387 15.0022 51.4541 19.5203 52.309 24.3807C53.1639 29.241 52.6233 34.2443 50.75 38.8099Z" fill="#7C7C7C"/>
<defs>
<linearGradient id="paint0_linear_101_11" x1="31.09" y1="65.6101" x2="26.16" y2="0.0602289" gradientUnits="userSpaceOnUse">
<stop offset="0.17" stop-color="#FBBD00"/>
<stop offset="1" stop-color="#FFEB00"/>
</linearGradient>
</defs>
</svg>
