<svg width="23" height="26" viewBox="0 0 23 26" fill="none" xmlns="http://www.w3.org/2000/svg">
<path d="M19.79 13.9902C20.614 14.07 21.3784 14.4547 21.9333 15.0688C22.4883 15.683 22.7939 16.4823 22.79 17.3101C22.8134 18.0552 22.5508 18.7811 22.0563 19.3389C21.5617 19.8967 20.8725 20.244 20.13 20.3101C19.5447 20.2466 18.978 20.0672 18.4629 19.7822C17.9478 19.4972 17.4947 19.1121 17.13 18.6499C14.56 15.8299 11.99 13.1699 11.99 13.1699C11.99 13.1699 12.8201 16.08 13.8101 19.98C14.0372 20.6301 14.2045 21.2995 14.3101 21.98C14.3509 22.8177 14.058 23.6375 13.4957 24.2598C12.9334 24.882 12.1476 25.2563 11.3101 25.3003C10.5176 25.2539 9.77577 24.895 9.24719 24.3027C8.71862 23.7104 8.44629 22.9328 8.48999 22.1401C8.53766 21.5795 8.64844 21.0261 8.82007 20.4902C9.82007 17.0802 10.8201 14.2602 11.0601 13.4902C10.5701 14.0802 8.33 16.4902 6 18.9702C5.25265 19.8911 4.17721 20.4863 3 20.6304C2.21985 20.583 1.48406 20.2514 0.931396 19.6987C0.378731 19.1461 0.0474099 18.4105 0 17.6304C0 16.4704 1.07007 15.14 3.32007 14.48C6.80007 13.4 9.71004 12.74 10.54 12.48C10.12 12.39 6.80007 11.65 3.32007 10.98C1.16007 10.57 0 9.15998 0 7.97998C0.0399244 7.22739 0.345024 6.51349 0.861206 5.96436C1.37739 5.41523 2.07138 5.06634 2.82007 4.97998C3.96991 5.08859 5.03872 5.61966 5.82007 6.47021C8.31007 9.13021 11.13 11.7803 11.13 11.7803C11.13 11.7803 9.96005 8.2999 8.80005 4.6499C8.80005 4.1499 8.46997 3.65031 8.46997 3.32031C8.45682 2.48994 8.75913 1.68552 9.31592 1.06934C9.87271 0.453157 10.6425 0.0707901 11.47 0C12.2606 0.0464621 13.0009 0.404029 13.5292 0.994141C14.0575 1.58425 14.331 2.35892 14.29 3.1499C14.2779 3.65395 14.221 4.15593 14.12 4.6499C13.21 8.3799 11.97 11.7803 11.97 11.7803C11.97 11.7803 14.21 8.88014 16.78 6.14014C17.1309 5.73357 17.5632 5.40536 18.049 5.17627C18.5347 4.94718 19.0631 4.82222 19.6 4.81006C20.3519 4.85194 21.065 5.15753 21.6138 5.67334C22.1625 6.18915 22.5117 6.88245 22.6 7.63037C22.6 8.80037 21.7701 10.1204 19.4501 10.6304C15.7901 11.4604 12.4501 12.46 12.4501 12.46C12.4501 12.46 15.97 13.3302 19.79 13.9902Z" fill="#F0B819"/>
</svg>
