<svg width="479" height="137" viewBox="0 0 479 137" fill="none" xmlns="http://www.w3.org/2000/svg">
<g clip-path="url(#clip0_1_49)">
<path fill-rule="evenodd" clip-rule="evenodd" d="M136.467 40.1174V-0.0390625H184.603V7.97921H144.447V32.0606H184.603V40.0789L136.467 40.1174ZM243.348 40.1174V32.0992H203.192V24.029H243.348V16.0108H203.192V7.97921H243.348V-0.0390625H195.2V40.1174H243.348ZM302.081 40.1174H261.924V56.1673H253.893V0.000152835H302.042V40.1567L302.081 40.1174ZM294.049 32.0992V8.01842H261.963V32.0992H294.049ZM360.813 40.1174V24.029H352.781V16.0108H320.695V7.97921H352.781V16.0108H360.813V-0.0390625H312.664V40.1174H360.813ZM352.781 32.0992H320.695V24.029H352.781V32.0606V32.0992ZM419.545 40.1174V-0.0390625H411.526V32.0606H379.427V-0.0390625H371.409V32.0606H379.427V40.0789L419.545 40.1174ZM430.141 40.1174V-0.0390625H478.277V7.97921H438.12V32.0606H478.277V40.0789L430.141 40.1174Z" fill="black"/>
<path d="M79.6006 29.7935L97.943 0L117.218 1.30832L119.964 133.358L100.391 121.143L101.156 29.7935H79.6006Z" fill="#B2B2B2"/>
<path d="M0 28.4852L15.4538 1.17879L88.1889 0L72.9553 29.651L0 28.4852Z" fill="#B2B2B2"/>
<path d="M0 28.4852L14.5082 0H88.1889L72.0097 28.4852H0Z" fill="black"/>
<path d="M82.3467 28.4852L97.943 0H119.964V133.358L102.27 28.4852H82.3467Z" fill="black"/>
<path d="M119.964 133.358L101.156 120.884L102.27 28.4851L119.964 133.358Z" fill="url(#paint0_linear_1_49)"/>
<path d="M29.7288 29.6511L19.3917 49.2889H86.479L73.888 76.9192H28.2261V133.384L0 48.9133L29.7288 29.6511Z" fill="url(#paint1_linear_1_49)"/>
<path d="M138.993 64.1853V65.4807C139.314 65.0408 139.741 64.6905 140.236 64.4636C140.73 64.2368 141.275 64.1411 141.817 64.1853H145.911C149.136 64.1853 150.198 66.2709 150.198 68.7191V71.2454C150.198 73.8361 148.903 75.7399 145.911 75.7399H141.947C141.385 75.7932 140.819 75.7022 140.302 75.4756C139.785 75.2489 139.335 74.894 138.993 74.4446V80.416H137.53V64.1853H138.993ZM138.993 68.7451V71.2454C138.951 71.6624 139.002 72.0831 139.142 72.4781C139.283 72.8731 139.509 73.2323 139.806 73.5287C140.102 73.8251 140.461 74.0517 140.856 74.1922C141.251 74.3327 141.672 74.3834 142.089 74.3408H145.38C147.556 74.3408 148.722 73.4993 148.722 71.2454V68.7191C148.722 66.5688 147.543 65.5844 145.38 65.5844H142.102C141.682 65.5437 141.257 65.5971 140.86 65.7407C140.462 65.8842 140.102 66.1142 139.804 66.4143C139.506 66.7143 139.279 67.077 139.139 67.4756C138.999 67.8743 138.949 68.2988 138.993 68.7191V68.7451Z" fill="#1D1D1B"/>
<path d="M153.592 70.1184V71.2456C153.592 73.629 154.797 74.3803 156.39 74.3803H161.17C161.483 74.416 161.799 74.3813 162.097 74.2797C162.395 74.178 162.667 74.0121 162.892 73.7927C163.118 73.5733 163.292 73.3064 163.402 73.0115C163.512 72.7166 163.555 72.401 163.528 72.0874H164.991C165.042 72.5746 164.985 73.0667 164.825 73.5295C164.665 73.9924 164.405 74.4149 164.064 74.7667C163.724 75.1186 163.31 75.3913 162.852 75.5662C162.395 75.7411 161.905 75.8141 161.416 75.7794H156.455C153.514 75.7794 152.115 74.3281 152.115 71.4783V68.4341C152.105 67.8682 152.209 67.3064 152.422 66.782C152.635 66.2575 152.952 65.7813 153.354 65.3829C153.756 64.9845 154.234 64.6719 154.761 64.4638C155.287 64.2558 155.85 64.157 156.416 64.1729H160.665C161.225 64.1211 161.79 64.1888 162.322 64.3721C162.853 64.5555 163.34 64.8502 163.749 65.2361C164.159 65.6221 164.481 66.0904 164.695 66.6106C164.909 67.1308 165.01 67.6909 164.991 68.2532V70.1184H153.592ZM160.807 65.5846H156.183C154.654 65.5846 153.592 66.8151 153.592 68.7193H163.528C163.528 66.7763 162.504 65.5846 160.807 65.5846V65.5846Z" fill="#1D1D1B"/>
<path d="M169.668 64.1855L174.759 74.0305L179.94 64.1855H182.621V75.8439H181.145V65.4809H180.704L175.341 75.7275H174.37L169.007 65.4809H168.567V75.8439H167.077V64.1855H169.668Z" fill="#1D1D1B"/>
<path d="M189.098 64.1855H193.14C196.495 64.1855 197.557 66.3226 197.557 68.732V71.2582C197.557 73.6935 196.391 75.792 193.114 75.792H189.098C186.106 75.792 184.681 74.1987 184.681 71.2582V68.732C184.642 66.1672 185.873 64.1855 189.098 64.1855ZM189.202 74.3929H193.088C193.508 74.443 193.935 74.3961 194.334 74.255C194.733 74.114 195.094 73.8826 195.39 73.5795C195.685 73.2765 195.907 72.9093 196.038 72.5068C196.169 72.1042 196.206 71.6772 196.145 71.2582V68.732C196.2 68.3152 196.16 67.8914 196.028 67.4923C195.896 67.0932 195.675 66.7294 195.382 66.4278C195.089 66.1262 194.732 65.8948 194.337 65.751C193.942 65.6072 193.519 65.5546 193.101 65.5973H189.215C187.207 65.5973 186.171 66.4781 186.171 68.732V71.2582C186.109 71.6712 186.143 72.0925 186.269 72.4903C186.396 72.8882 186.612 73.2522 186.901 73.5536C187.19 73.855 187.544 74.0864 187.936 74.2297C188.328 74.373 188.748 74.4244 189.163 74.3803L189.202 74.3929Z" fill="#1D1D1B"/>
<path d="M201.029 75.8439H199.565V64.1855H201.029V68.9135H210.796V64.1855H212.272V75.8439H210.796V70.4164H201.029V75.8439Z" fill="#1D1D1B"/>
<path d="M219.488 75.8439V65.6884H213.969V64.1855H226.483V65.5846H220.964V75.8439H219.488Z" fill="#1D1D1B"/>
<path d="M236.276 75.8439H234.799V64.1855H236.276V68.9135H246.095V64.1855H247.558V75.8439H246.095V70.4164H236.328L236.276 75.8439Z" fill="#1D1D1B"/>
<path d="M254.022 64.1855H258.064C261.419 64.1855 262.468 66.3226 262.468 68.732V71.2582C262.468 73.6935 261.315 75.792 258.038 75.792H254.022C251.03 75.792 249.605 74.1987 249.605 71.2582V68.732C249.605 66.1672 250.823 64.1855 254.022 64.1855ZM254.113 74.3929H257.934C258.356 74.4452 258.783 74.3995 259.184 74.2595C259.585 74.1194 259.948 73.8885 260.245 73.5852C260.542 73.2819 260.765 72.9142 260.897 72.5106C261.029 72.1069 261.065 71.6784 261.004 71.2582V68.732C261.057 68.3157 261.015 67.8934 260.882 67.4954C260.749 67.0975 260.528 66.7345 260.236 66.4335C259.943 66.1324 259.587 65.9008 259.193 65.7561C258.799 65.6114 258.378 65.5571 257.96 65.5973H254.074C252.079 65.5973 251.03 66.4781 251.03 68.732V71.2582C250.968 71.6791 251.005 72.1088 251.137 72.5131C251.269 72.9174 251.494 73.2857 251.793 73.5884C252.092 73.8911 252.457 74.1201 252.86 74.2576C253.262 74.395 253.691 74.437 254.113 74.3803V74.3929Z" fill="#1D1D1B"/>
<path d="M264.916 64.1855L269.606 74.1083H269.891L273.621 64.1855H275.15L270.085 77.2556C269.178 79.6003 268.401 80.7015 265.914 80.7015H265.422V79.2898H266.276C267.572 79.2898 268.22 78.6677 269.282 75.7402H268.919L263.375 64.1855H264.916Z" fill="#1D1D1B"/>
<path d="M281.329 75.8439V65.6884H275.81V64.1855H288.311V65.5846H282.792V75.8439H281.329Z" fill="#1D1D1B"/>
<path d="M302.106 59.5222C302.106 61.6078 300.979 62.3982 298.466 62.3982H294.166C292.041 62.3982 291.342 64.1728 291.342 65.8568C291.602 65.3128 292.021 64.8608 292.544 64.5601C293.067 64.2594 293.668 64.1245 294.269 64.173H298.311C301.666 64.173 302.715 66.3101 302.715 68.7195V71.2457C302.715 73.681 301.562 75.7795 298.285 75.7795H294.244C291.264 75.7795 289.865 74.1603 289.865 71.2716V66.8409C289.865 63.9523 290.876 60.9991 293.751 60.9991H298.233C300.319 60.9991 300.902 60.5585 300.902 59.5222H302.106ZM298.22 65.5848H294.334C293.917 65.5437 293.497 65.5975 293.104 65.7423C292.711 65.8871 292.356 66.1193 292.065 66.421C291.775 66.7226 291.557 67.0861 291.427 67.4842C291.297 67.8823 291.259 68.3046 291.316 68.7195V71.2457C291.316 73.3183 292.313 74.3804 294.334 74.3804H298.22C298.64 74.4283 299.064 74.3795 299.462 74.2375C299.859 74.0954 300.219 73.8641 300.513 73.5613C300.807 73.2585 301.028 72.8919 301.158 72.4905C301.288 72.089 301.325 71.6635 301.264 71.2457V68.7195C301.317 68.302 301.275 67.8781 301.141 67.4791C301.008 67.0801 300.786 66.7165 300.492 66.4153C300.198 66.114 299.84 65.8829 299.444 65.7391C299.049 65.5953 298.626 65.5425 298.207 65.5848H298.22Z" fill="#1D1D1B"/>
<path d="M305.164 64.1855L309.853 74.1083H310.138L313.868 64.1855H315.397L310.332 77.2556C309.425 79.6003 308.648 80.7015 306.161 80.7015H305.682V79.2898H306.537C307.832 79.2898 308.48 78.6677 309.542 75.7402H309.179L303.635 64.1855H305.164Z" fill="#1D1D1B"/>
<path d="M318.195 75.8439H316.731V64.1855H318.195V68.577H319.788L325.099 64.1855H327.457L321.084 69.367L327.988 75.7794H325.864L319.775 70.0274H318.195V75.8439Z" fill="#1D1D1B"/>
<path d="M333.532 64.1855H337.574C340.929 64.1855 341.991 66.3226 341.991 68.732V71.2582C341.991 73.6935 340.825 75.792 337.548 75.792H333.532C330.54 75.792 329.115 74.1987 329.115 71.2582V68.732C329.115 66.1672 330.294 64.1855 333.532 64.1855ZM333.636 74.3929H337.457C337.877 74.443 338.304 74.3961 338.703 74.255C339.102 74.114 339.463 73.8826 339.759 73.5795C340.054 73.2765 340.276 72.9093 340.407 72.5068C340.538 72.1042 340.575 71.6772 340.514 71.2582V68.732C340.567 68.3157 340.525 67.8934 340.392 67.4954C340.259 67.0975 340.038 66.7345 339.745 66.4335C339.453 66.1324 339.097 65.9008 338.703 65.7561C338.309 65.6114 337.888 65.5571 337.47 65.5973H333.584C331.576 65.5973 330.54 66.4781 330.54 68.732V71.2582C330.475 71.6809 330.509 72.1127 330.641 72.5194C330.774 72.9262 330.999 73.2967 331.3 73.6004C331.601 73.904 331.97 74.1329 332.375 74.2683C332.781 74.4038 333.213 74.442 333.636 74.3803V74.3929Z" fill="#1D1D1B"/>
<path d="M344.076 64.1855H352.924C355.411 64.1855 356.512 65.39 356.512 67.1906V67.6574C356.564 68.1588 356.433 68.6622 356.142 69.0742C355.851 69.4862 355.421 69.7789 354.932 69.8983C355.468 70.0208 355.946 70.3247 356.283 70.7592C356.621 71.1936 356.798 71.7316 356.784 72.2816V72.7996C356.784 74.6391 355.683 75.792 353.144 75.792H344.076V64.1855ZM345.553 69.2374H353.17C354.401 69.2374 355.048 68.7325 355.048 67.6574V67.1906C355.048 66.1543 354.349 65.5973 353.131 65.5973H345.553V69.2374ZM345.553 74.4189H353.105C354.543 74.4189 355.307 73.8489 355.307 72.8256V72.3075C355.307 71.3749 355.048 70.6751 352.885 70.6751H345.553V74.4189Z" fill="#1D1D1B"/>
<path d="M139.123 103.824H137.646V92.2695H139.123V96.6604H140.716L146.027 92.2695H148.372L141.999 97.451L148.903 103.928H146.779L140.69 98.1632H139.123V103.824Z" fill="#1D1D1B"/>
<path d="M154.447 92.2178H158.502C161.844 92.2178 162.906 94.3422 162.906 96.7516V99.2772C162.906 101.712 161.74 103.824 158.476 103.824H154.447C151.468 103.824 150.043 102.231 150.043 99.2772V96.7516C150.043 94.2126 151.26 92.2178 154.447 92.2178ZM154.551 102.412H158.372C158.793 102.464 159.221 102.418 159.622 102.278C160.023 102.138 160.386 101.908 160.683 101.605C160.98 101.301 161.203 100.933 161.335 100.53C161.466 100.126 161.503 99.6973 161.442 99.2772V96.7516C161.495 96.3353 161.453 95.9123 161.32 95.5144C161.187 95.1165 160.966 94.7534 160.673 94.4524C160.381 94.1514 160.025 93.9203 159.631 93.7756C159.237 93.6309 158.816 93.5767 158.398 93.6169H154.512C152.517 93.6169 151.468 94.5106 151.468 96.7516V99.2772C151.401 99.6995 151.434 100.132 151.564 100.539C151.694 100.946 151.919 101.318 152.218 101.622C152.518 101.927 152.886 102.158 153.291 102.295C153.696 102.432 154.127 102.472 154.551 102.412V102.412Z" fill="#1D1D1B"/>
<path d="M167.517 92.2695L172.595 102.114L177.777 92.2695H180.367V103.824H178.904V93.5776H178.45L173.1 103.824H172.116L166.766 93.5776H166.313V103.824H164.849V92.2695H167.517Z" fill="#1D1D1B"/>
<path d="M195.433 92.2695V103.824H193.956V93.668H184.189V103.824H182.725V92.2695H195.433Z" fill="#1D1D1B"/>
<path d="M199.215 96.7515H207.065C209.267 96.7515 210.213 97.8786 210.213 99.4719V100.87C210.213 102.878 208.982 103.824 206.819 103.824H197.751V92.2695H199.228L199.215 96.7515ZM199.215 102.412H206.508C208.309 102.412 208.736 101.713 208.736 100.689V99.8469C208.736 98.7718 208.373 98.1632 206.534 98.1632H199.215V102.412Z" fill="#1D1D1B"/>
<path d="M213.296 103.824H211.832V92.2696H213.296V96.9458H215.614C215.614 94.355 216.819 92.2178 220.006 92.2178H224.073C227.428 92.2178 228.49 94.3422 228.49 96.7516V99.2772C228.49 101.687 227.338 103.824 224.073 103.824H220.032C217.039 103.824 215.64 102.179 215.64 99.2772V98.3449H213.322L213.296 103.824ZM220.096 102.412H223.983C224.404 102.464 224.832 102.418 225.233 102.278C225.633 102.138 225.996 101.908 226.293 101.605C226.591 101.301 226.814 100.933 226.945 100.53C227.077 100.126 227.114 99.6973 227.053 99.2772V96.7516C227.101 96.3339 227.055 95.9103 226.919 95.5125C226.782 95.1147 226.559 94.7528 226.265 94.4524C225.971 94.152 225.613 93.9208 225.218 93.7763C224.823 93.6317 224.401 93.5775 223.983 93.6169H220.096C218.102 93.6169 217.078 94.4847 217.078 96.7516V99.2772C217.078 101.389 218.102 102.412 220.096 102.412Z" fill="#1D1D1B"/>
<path d="M235.356 103.824V93.668H229.838V92.2695H242.338V93.668H236.82V103.824H235.356Z" fill="#1D1D1B"/>
<path d="M257.468 92.2696V93.4999C257.796 93.0728 258.227 92.736 258.721 92.5207C259.215 92.3055 259.756 92.2193 260.292 92.2696H264.372C267.611 92.2696 268.673 94.3422 268.673 96.8034V99.329C268.673 101.92 267.378 103.824 264.372 103.824H260.408C259.849 103.876 259.285 103.785 258.77 103.558C258.256 103.331 257.807 102.977 257.468 102.529V108.488H256.004V92.2178L257.468 92.2696ZM257.468 96.8294V99.329C257.425 99.7444 257.476 100.164 257.616 100.557C257.756 100.951 257.981 101.308 258.277 101.604C258.572 101.899 258.929 102.125 259.323 102.264C259.716 102.404 260.136 102.454 260.551 102.412H263.841C266.03 102.412 267.196 101.57 267.196 99.329V96.8034C267.196 94.6531 266.017 93.6681 263.841 93.6681H260.577C260.156 93.6274 259.732 93.6808 259.334 93.8243C258.937 93.9679 258.576 94.1979 258.279 94.498C257.981 94.798 257.754 95.1606 257.614 95.5593C257.473 95.958 257.424 96.3832 257.468 96.8034V96.8294Z" fill="#1D1D1B"/>
<path d="M274.891 92.2178H278.932C282.287 92.2178 283.349 94.3422 283.349 96.7516V99.2772C283.349 101.712 282.184 103.824 278.906 103.824H274.891C271.898 103.824 270.473 102.231 270.473 99.2772V96.7516C270.473 94.2126 271.704 92.2178 274.891 92.2178ZM274.994 102.412H278.803C279.224 102.464 279.652 102.418 280.053 102.278C280.453 102.138 280.816 101.908 281.113 101.605C281.411 101.301 281.634 100.933 281.765 100.53C281.897 100.126 281.934 99.6973 281.873 99.2772V96.7516C281.925 96.3353 281.883 95.9123 281.75 95.5144C281.617 95.1165 281.396 94.7534 281.104 94.4524C280.812 94.1514 280.455 93.9203 280.062 93.7756C279.668 93.6309 279.246 93.5767 278.829 93.6169H274.943C272.935 93.6169 271.885 94.5106 271.885 96.7516V99.2772C271.82 99.7015 271.855 100.135 271.988 100.543C272.121 100.952 272.348 101.323 272.65 101.628C272.952 101.933 273.322 102.163 273.729 102.299C274.136 102.435 274.569 102.474 274.994 102.412Z" fill="#1D1D1B"/>
<path d="M285.435 92.2178H294.282C296.77 92.2178 297.871 93.4096 297.871 95.2102V95.6763C297.922 96.1812 297.79 96.6876 297.497 97.102C297.204 97.5164 296.77 97.8104 296.277 97.9299C296.816 98.0498 297.297 98.3529 297.637 98.7876C297.977 99.2223 298.156 99.762 298.143 100.314V100.819C298.143 102.671 297.042 103.824 294.503 103.824H285.435V92.2178ZM286.912 97.2696H294.529C295.746 97.2696 296.407 96.7515 296.407 95.6763V95.2747C296.407 94.2513 295.707 93.6814 294.49 93.6814H286.912V97.2696ZM286.912 102.451H294.464C295.889 102.451 296.666 101.894 296.666 100.858V100.352C296.666 99.4198 296.407 98.7073 294.244 98.7073H286.912V102.451Z" fill="#1D1D1B"/>
<path d="M142.465 131.856V121.713H136.947V120.301H149.46V121.713H143.942V131.856H142.465Z" fill="#1D1D1B"/>
<path d="M152.608 126.195V127.322C152.608 129.705 153.812 130.457 155.419 130.457H160.186C160.499 130.495 160.816 130.462 161.115 130.361C161.414 130.26 161.687 130.094 161.913 129.874C162.139 129.654 162.313 129.386 162.422 129.09C162.531 128.794 162.573 128.478 162.543 128.164H164.02C164.071 128.652 164.013 129.145 163.853 129.609C163.692 130.073 163.431 130.496 163.089 130.848C162.747 131.2 162.331 131.473 161.872 131.647C161.413 131.821 160.921 131.893 160.432 131.856H155.419C152.478 131.856 151.092 130.405 151.092 127.555V124.51C151.079 123.946 151.182 123.385 151.394 122.861C151.605 122.337 151.921 121.862 152.322 121.464C152.724 121.067 153.202 120.755 153.727 120.548C154.253 120.342 154.815 120.244 155.38 120.262H159.629C160.189 120.208 160.754 120.274 161.286 120.456C161.819 120.638 162.306 120.931 162.717 121.316C163.127 121.7 163.451 122.168 163.667 122.688C163.883 123.207 163.985 123.767 163.968 124.33V126.195H152.608ZM159.823 121.661H155.211C153.67 121.661 152.621 122.956 152.621 124.796H162.556C162.543 122.853 161.52 121.661 159.823 121.661V121.661Z" fill="#1D1D1B"/>
<path d="M169.499 121.713V127.555C169.499 130.495 168.204 131.856 165.859 131.856H165.432V130.457H165.859C167.31 130.457 168.023 129.563 168.023 127.503V120.301H179.409V131.856H177.932V121.713H169.499Z" fill="#1D1D1B"/>
<path d="M183.088 126.195V127.322C183.088 129.705 184.292 130.457 185.886 130.457H190.666C190.978 130.492 191.295 130.458 191.593 130.356C191.891 130.254 192.162 130.088 192.388 129.868C192.613 129.649 192.787 129.383 192.897 129.088C193.007 128.793 193.05 128.477 193.023 128.164H194.487C194.537 128.651 194.481 129.143 194.32 129.606C194.16 130.069 193.901 130.491 193.56 130.843C193.219 131.195 192.806 131.468 192.348 131.643C191.891 131.818 191.4 131.89 190.912 131.856H185.951C183.01 131.856 181.624 130.405 181.624 127.555V124.51C181.611 123.946 181.714 123.385 181.926 122.861C182.137 122.337 182.453 121.862 182.854 121.464C183.255 121.067 183.733 120.755 184.259 120.548C184.785 120.342 185.347 120.244 185.912 120.262H190.16C190.72 120.21 191.283 120.278 191.814 120.461C192.345 120.643 192.831 120.936 193.24 121.321C193.649 121.705 193.972 122.173 194.187 122.691C194.402 123.21 194.504 123.768 194.487 124.33V126.195H183.088ZM190.303 121.661H185.678C184.15 121.661 183.088 122.956 183.088 124.796H192.984C192.984 122.853 192 121.661 190.303 121.661V121.661Z" fill="#1D1D1B"/>
<path d="M205.666 130.612C205.33 131.064 204.882 131.422 204.367 131.649C203.852 131.876 203.286 131.965 202.726 131.907H200.912C197.881 131.907 196.586 130.081 196.586 127.439V124.848C196.586 122.413 197.687 120.301 200.912 120.301H202.855C203.396 120.249 203.942 120.341 204.436 120.568C204.93 120.796 205.354 121.151 205.666 121.596V115.741H207.143V121.57C207.459 121.127 207.887 120.774 208.382 120.547C208.878 120.32 209.424 120.226 209.967 120.275H211.91C215.135 120.275 216.236 122.387 216.236 124.822V127.413C216.236 130.004 214.941 131.881 211.884 131.881H210.083C209.523 131.936 208.958 131.846 208.443 131.619C207.928 131.392 207.48 131.036 207.143 130.586V136.532H205.666V130.612ZM202.57 121.713H201.404C199.241 121.713 198.049 122.672 198.049 124.822V127.348C198.049 129.589 199.345 130.457 201.469 130.457H202.505C202.925 130.502 203.349 130.454 203.748 130.317C204.147 130.179 204.51 129.955 204.812 129.66C205.114 129.366 205.347 129.008 205.495 128.613C205.642 128.217 205.701 127.794 205.666 127.374V124.783C205.704 124.368 205.651 123.95 205.508 123.558C205.366 123.167 205.139 122.811 204.843 122.517C204.547 122.224 204.189 122 203.796 121.861C203.404 121.722 202.985 121.671 202.57 121.713V121.713ZM207.143 124.822V127.348C207.105 127.767 207.159 128.189 207.303 128.584C207.447 128.98 207.676 129.339 207.974 129.635C208.272 129.932 208.632 130.16 209.028 130.301C209.424 130.443 209.846 130.497 210.265 130.457H211.417C213.594 130.457 214.76 129.615 214.76 127.374V124.848C214.76 122.685 213.581 121.713 211.417 121.713H210.252C209.839 121.695 209.426 121.763 209.041 121.913C208.655 122.062 208.305 122.291 208.012 122.583C207.72 122.875 207.492 123.225 207.342 123.611C207.192 123.996 207.124 124.409 207.143 124.822V124.822Z" fill="#1D1D1B"/>
<path d="M222.661 120.262H226.664C230.019 120.262 231.081 122.387 231.081 124.796V127.322C231.081 129.758 229.915 131.856 226.651 131.856H222.622C219.643 131.856 218.205 130.263 218.205 127.322V124.796C218.244 122.244 219.475 120.262 222.661 120.262ZM222.765 130.457H226.651C227.071 130.507 227.498 130.459 227.897 130.318C228.296 130.177 228.657 129.947 228.953 129.644C229.248 129.34 229.47 128.973 229.601 128.571C229.732 128.168 229.769 127.741 229.708 127.322V124.796C229.763 124.379 229.723 123.955 229.591 123.556C229.459 123.157 229.238 122.793 228.945 122.492C228.652 122.19 228.295 121.959 227.9 121.815C227.505 121.671 227.082 121.619 226.664 121.661H222.778C220.77 121.661 219.734 122.555 219.734 124.796V127.322C219.668 127.741 219.701 128.169 219.829 128.573C219.957 128.977 220.178 129.345 220.473 129.649C220.768 129.953 221.13 130.185 221.53 130.325C221.93 130.465 222.357 130.51 222.778 130.457H222.765Z" fill="#1D1D1B"/>
<path d="M234.643 131.856H233.141V120.301H234.618V125.068H244.385V120.34H245.848V131.895H244.411V126.467H234.643V131.856Z" fill="#1D1D1B"/>
<path d="M252.377 120.262H256.458C259.8 120.262 260.862 122.387 260.862 124.796V127.322C260.862 129.758 259.696 131.856 256.432 131.856H252.403C249.424 131.856 247.986 130.263 247.986 127.322V124.796C247.96 122.244 249.191 120.262 252.377 120.262ZM252.481 130.457H256.367C256.788 130.509 257.216 130.464 257.617 130.323C258.018 130.183 258.381 129.953 258.678 129.649C258.975 129.346 259.198 128.978 259.33 128.575C259.461 128.171 259.498 127.742 259.437 127.322V124.796C259.489 124.38 259.448 123.957 259.314 123.559C259.181 123.161 258.96 122.798 258.668 122.497C258.376 122.196 258.02 121.965 257.626 121.82C257.232 121.675 256.81 121.621 256.393 121.661H252.507C250.499 121.661 249.463 122.555 249.463 124.796V127.322C249.398 127.739 249.43 128.164 249.557 128.566C249.684 128.967 249.902 129.334 250.194 129.638C250.487 129.941 250.845 130.173 251.242 130.315C251.638 130.457 252.062 130.506 252.481 130.457V130.457Z" fill="#1D1D1B"/>
<path d="M262.934 120.262H271.782C274.282 120.262 275.383 121.454 275.383 123.255V123.721C275.434 124.224 275.301 124.729 275.008 125.141C274.715 125.554 274.282 125.845 273.79 125.962C274.328 126.082 274.809 126.385 275.149 126.819C275.489 127.254 275.668 127.793 275.655 128.345V128.864C275.655 130.716 274.541 131.856 272.015 131.856H262.947L262.934 120.262ZM264.411 125.314H272.002C273.297 125.314 273.893 124.796 273.893 123.721V123.255C273.893 122.218 273.194 121.661 271.963 121.661H264.385L264.411 125.314ZM264.411 130.496H272.002C273.427 130.496 274.204 129.926 274.204 128.902V128.384C274.204 127.452 273.945 126.752 271.769 126.752H264.437L264.411 130.496Z" fill="#1D1D1B"/>
<path d="M243.815 98.2014V99.3285C243.815 101.712 245.019 102.463 246.613 102.463H251.393C251.705 102.499 252.021 102.466 252.318 102.364C252.616 102.262 252.886 102.095 253.111 101.876C253.336 101.656 253.509 101.389 253.617 101.094C253.725 100.799 253.766 100.483 253.737 100.17H255.162C255.213 100.658 255.156 101.15 254.995 101.613C254.835 102.076 254.576 102.498 254.235 102.85C253.894 103.202 253.481 103.475 253.023 103.65C252.566 103.825 252.075 103.897 251.587 103.862H246.626C243.672 103.862 242.286 102.412 242.286 99.5619V96.5695C242.275 96.0053 242.379 95.4448 242.591 94.9219C242.804 94.399 243.12 93.9244 243.521 93.5272C243.921 93.13 244.399 92.8187 244.923 92.6113C245.448 92.4039 246.01 92.3051 246.574 92.321H250.836C251.395 92.2694 251.958 92.337 252.489 92.5196C253.02 92.7022 253.506 92.9953 253.915 93.3798C254.324 93.7644 254.647 94.2312 254.862 94.7498C255.077 95.2685 255.179 95.8269 255.162 96.388V98.2533L243.815 98.2014ZM251.03 93.6676H246.405C244.877 93.6676 243.815 94.9635 243.815 96.8029H253.737C253.737 94.8599 252.727 93.6676 251.03 93.6676V93.6676Z" fill="#1D1D1B"/>
</g>
<defs>
<linearGradient id="paint0_linear_1_49" x1="103.384" y1="22.0342" x2="111.907" y2="146.817" gradientUnits="userSpaceOnUse">
<stop stop-color="#FDDE28"/>
<stop offset="0.43" stop-color="#FDD31D"/>
<stop offset="0.9" stop-color="#FCC10C"/>
</linearGradient>
<linearGradient id="paint1_linear_1_49" x1="42.2421" y1="19.34" x2="46.2577" y2="139.11" gradientUnits="userSpaceOnUse">
<stop offset="0.13" stop-color="#FDDE28"/>
<stop offset="0.46" stop-color="#FDD31D"/>
<stop offset="0.81" stop-color="#FCC10C"/>
</linearGradient>
<clipPath id="clip0_1_49">
<rect width="478.277" height="136.558" fill="white"/>
</clipPath>
</defs>
</svg>
