<svg width="41" height="30" viewBox="0 0 41 30" fill="none" xmlns="http://www.w3.org/2000/svg">
<path d="M20.1852 4.22338C21.7452 4.22338 29.3552 4.22337 30.7652 4.10337C31.1552 4.10337 31.0052 3.80338 30.9852 3.51338C30.9652 3.22338 30.7952 2.59338 31.2552 2.30338C31.7152 2.01338 32.1752 2.30338 32.4852 2.24338C32.4852 2.03338 32.4852 1.40338 32.4852 1.13338C32.4526 0.906021 32.4837 0.674061 32.5752 0.463374C32.9152 -0.0366265 33.3952 0.173375 33.8252 0.113375C34.4152 0.113375 35.4252 -0.116624 35.5752 0.723376C35.5752 1.14338 35.5752 1.94338 35.5752 2.20338C35.5752 2.11338 35.4252 2.10337 35.4952 2.11337H35.7152C37.2952 2.11337 39.8752 1.57338 40.2152 3.80338C40.3552 8.51338 40.2152 13.9834 40.1352 18.7034C40.1352 20.1034 40.3352 22.2634 38.3552 22.3834C37.1052 22.4534 35.3552 22.3334 34.0752 22.3834C33.6052 22.3834 33.4052 21.8734 33.2752 21.5134L32.8652 20.5134L31.1852 16.6134L30.3452 14.6634C30.2052 14.3134 30.0752 14.1334 29.7452 14.1434H28.6852C23.3452 14.1434 16.0552 14.3134 10.6852 14.3734C10.3252 14.3734 10.4152 14.3734 10.2552 14.6634L9.44521 16.6634L7.82522 20.5134L7.41518 21.5134C7.25518 21.9334 7.0152 22.5134 6.4952 22.6334C6.10557 22.6574 5.71485 22.6574 5.32522 22.6334H4.26522C3.41522 22.5734 1.57518 22.8634 0.845177 22.2034C0.525417 21.9099 0.283911 21.5413 0.142479 21.131C0.00104661 20.7207 -0.0358446 20.2815 0.0351791 19.8534C0.0351791 19.2034 0.0351791 17.3534 0.0351791 16.6734C0.0351791 12.5034 0.0351767 8.09338 0.0951767 3.90338C0.215177 2.39338 1.63521 1.90337 2.94521 2.03337C3.37521 2.03337 4.5852 2.03337 4.8652 2.03337C4.7752 2.09337 4.76523 2.20337 4.77523 2.14337C4.78523 2.08337 4.77523 1.57338 4.77523 1.38338C4.77523 0.933379 4.67521 0.383374 5.25521 0.0733741C5.47133 0.00391838 5.70017 -0.0165745 5.92519 0.0133766H6.92519C7.16981 -0.0123186 7.41604 0.0439644 7.62521 0.17338C7.72505 0.26411 7.80031 0.378611 7.84402 0.506243C7.88773 0.633875 7.89847 0.770488 7.87521 0.903376C7.87521 1.16338 7.73521 2.12338 7.87521 2.17338C8.01521 2.22338 8.8752 1.93337 9.2452 2.35337C9.3952 2.55337 9.29521 3.02338 9.31521 3.26338C9.33521 3.50338 9.2352 3.88338 9.5552 3.95338C10.8752 4.10338 18.6152 4.08338 20.1152 4.12338L20.1852 4.22338ZM20.1852 4.32337L11.7052 4.41338C10.9052 4.34338 9.99523 4.65338 9.21523 4.26338C8.84523 3.83338 9.00522 3.26338 8.95522 2.72338C8.65522 2.72338 8.2952 2.88338 7.7452 2.72338C7.1952 2.56338 7.33518 1.91337 7.34518 1.50337C7.37863 1.25115 7.37863 0.995609 7.34518 0.74338C7.23911 0.72734 7.13129 0.72734 7.02523 0.74338C6.61523 0.74338 6.02522 0.74338 5.57522 0.74338C5.57522 0.74338 5.57522 0.743377 5.57522 0.873377C5.57522 1.26338 5.57522 1.81338 5.57522 2.20338C5.57437 2.31517 5.54556 2.42498 5.49142 2.52279C5.43727 2.6206 5.35951 2.70331 5.26522 2.76338C5.03254 2.85131 4.78294 2.88549 4.53518 2.86337C4.14518 2.86337 3.34522 2.86337 2.95522 2.86337C2.07522 2.86337 1.1052 2.93337 1.0552 3.96337C1.0552 6.77337 1.0552 13.9634 1.0552 16.6434C1.0552 17.3134 1.0552 19.1734 1.0552 19.8234C1.0552 20.6634 1.05517 21.5334 2.15517 21.5934C3.25517 21.6534 5.22521 21.5934 6.25521 21.5934C6.25521 21.5934 6.25521 21.5934 6.25521 21.5234C6.66521 20.5934 8.13522 17.1934 8.57522 16.1934L9.42519 14.2534C9.51397 14.0086 9.67425 13.796 9.88522 13.6434C10.1099 13.516 10.368 13.4602 10.6252 13.4834L20.1652 13.6134C23.3452 13.6134 26.5352 13.7134 29.7052 13.7134C29.9138 13.7272 30.1127 13.806 30.2741 13.9388C30.4356 14.0715 30.5513 14.2515 30.6052 14.4534L31.4252 16.4534L33.1152 20.3434C33.1852 20.5334 33.6552 21.5834 33.7452 21.7734C33.7721 21.8266 33.8137 21.8709 33.8651 21.9011C33.9166 21.9312 33.9756 21.9459 34.0352 21.9434H36.1352C39.2052 21.9434 39.6452 21.9434 39.4352 18.6834C39.4352 17.3634 39.3552 13.6834 39.3352 12.3234L39.2852 3.91338C39.0652 2.45338 37.2852 2.98338 36.1852 2.91338H35.6552C35.4656 2.93304 35.2741 2.9091 35.0952 2.84338C34.8152 2.76338 34.7152 2.28338 34.7552 2.12338C34.7552 1.78338 34.7552 1.18338 34.7552 0.883379C34.7552 0.583379 34.3652 0.803373 34.2252 0.783373C33.7989 0.757782 33.3715 0.757782 32.9452 0.783373C32.9234 1.07964 32.9234 1.37711 32.9452 1.67338V2.22338C32.9446 2.38001 32.8837 2.53039 32.7752 2.64337C32.6598 2.73675 32.5134 2.78318 32.3652 2.77338C31.9552 2.77338 31.5852 2.64338 31.3652 2.77338C31.1452 2.90338 31.4152 3.77338 31.2752 4.13338C31.2349 4.2519 31.158 4.35453 31.0555 4.42643C30.953 4.49834 30.8304 4.53579 30.7052 4.53337L20.1852 4.32337V4.32337Z" fill="#242021"/>
<path d="M19.7252 22.4033C19.7252 24.5333 19.7252 26.6633 19.7252 28.7933C19.7252 29.2533 19.5852 29.3633 19.1452 29.3533C17.1452 29.3533 15.1752 29.3533 13.2352 29.3533C12.8252 29.3533 12.7252 29.2633 12.8152 28.8433C13.7352 24.5433 14.6452 20.2466 15.5452 15.9533C15.6252 15.5733 15.7652 15.4633 16.1352 15.4733C17.0852 15.4733 18.0352 15.4733 18.9852 15.4733C19.7052 15.4733 19.7052 15.4733 19.7052 16.2233C19.7186 18.2899 19.7252 20.3499 19.7252 22.4033Z" fill="#E22685"/>
<path d="M20.6952 22.3834C20.6952 20.2134 20.6952 18.0534 20.6952 15.8834C20.6952 15.5434 20.7852 15.4734 21.1052 15.4734C22.1852 15.4734 23.2552 15.4734 24.3252 15.4734C24.6552 15.4734 24.7552 15.6034 24.8152 15.8834C25.7352 20.2301 26.6585 24.5634 27.5852 28.8834C27.6452 29.2034 27.5852 29.2934 27.2552 29.2934C25.2152 29.2934 23.1752 29.2934 21.1352 29.2934C20.7552 29.2934 20.6952 29.1434 20.6952 28.8134C20.6952 26.7134 20.6952 24.5134 20.6952 22.3834Z" fill="url(#paint0_linear_162_23)"/>
<path d="M35.1852 29.3334H28.9252C28.6452 29.3334 28.6152 29.1834 28.5752 28.9734C27.8952 25.7434 27.2052 22.5034 26.5752 19.2734C26.3452 18.1734 26.1252 17.0734 25.8652 15.9734C25.7852 15.6234 25.7852 15.4634 26.2352 15.4834C27.1452 15.4834 28.0552 15.4834 28.9652 15.4834C29.2052 15.4834 29.3552 15.4834 29.4552 15.7734C31.3685 20.2334 33.2852 24.6934 35.2052 29.1534C35.2052 29.1534 35.1852 29.2134 35.1852 29.3334Z" fill="black"/>
<path d="M5.18518 29.3334L7.53516 23.8834C8.67516 21.2434 9.81518 18.6034 10.9352 15.9534C10.9731 15.8017 11.0652 15.6691 11.1942 15.5807C11.3231 15.4922 11.48 15.4541 11.6352 15.4734C12.4952 15.4734 13.3552 15.4734 14.2152 15.4734C14.6052 15.4734 14.6952 15.5734 14.6152 15.9634C13.6885 20.2901 12.7685 24.6234 11.8552 28.9634C11.8552 29.2134 11.7252 29.3334 11.4452 29.3334H5.18518Z" fill="#086AA8"/>
<defs>
<linearGradient id="paint0_linear_162_23" x1="20.6852" y1="22.4134" x2="27.5952" y2="22.4134" gradientUnits="userSpaceOnUse">
<stop stop-color="#FBBD00"/>
<stop offset="1" stop-color="#FFEB00"/>
</linearGradient>
</defs>
</svg>
