<svg width="548" height="100" viewBox="0 0 548 100" fill="none" xmlns="http://www.w3.org/2000/svg">
<path d="M59.03 22.7599L72.63 0.669922L86.92 1.63992L88.95 99.5499L74.44 90.4999L75.01 22.7599H59.03Z" fill="#B2B2B2"/>
<path d="M0 21.7899L11.46 1.53992L65.4 0.669922L54.09 22.6599L0 21.7899Z" fill="#B2B2B2"/>
<path d="M0 21.7899L10.76 0.669922H65.4L53.4 21.7899H0Z" fill="black"/>
<path d="M61.06 21.7899L72.63 0.669922H88.95V99.5499L75.83 21.7899H61.06Z" fill="black"/>
<path d="M88.95 99.55L75.01 90.31L75.83 21.79L88.95 99.55Z" fill="url(#paint0_linear_101_3)"/>
<path d="M22.05 22.6599L14.38 37.2199H64.13L54.79 57.6999H20.93V99.5699L0 36.9399L22.05 22.6599Z" fill="url(#paint1_linear_101_3)"/>
<path fill-rule="evenodd" clip-rule="evenodd" d="M98.09 81.3799V58.9599H125.01V63.4499H102.58V76.9099H125.01V81.3799H98.09ZM157.85 81.3799V76.8999H135.42V72.3799H157.85V67.8999H135.42V63.4099H157.85V58.9199H130.93V81.3799H157.85ZM190.69 81.3799H168.25V90.3799H163.77V58.9599H190.69V81.3799ZM186.2 76.8999V63.4499H168.25V76.9099L186.2 76.8999ZM223.52 81.3799V72.3799H219.04V67.8999H201.04V63.4099H219.04V67.8999H223.52V58.8999H196.61V81.3799H223.52ZM219.04 76.8999H201.04V72.3799H219.04V76.8699V76.8999ZM256.36 81.3799V58.9599H251.88V76.9599H233.88V58.9599H229.4V76.9599H233.88V81.3799H256.36ZM262.28 81.3799V58.9599H289.2V63.4499H266.77V76.9099H289.2V81.3799H262.28Z" fill="#1D1D1B" stroke="#1D1D1B" stroke-width="0.5" stroke-linecap="round" stroke-linejoin="round"/>
<path d="M101.31 30.89H98.05V8.51001H101.31V17.03H104.85L116.63 8.51001H121.84L107.7 18.51L123.02 30.92H118.31L104.84 19.75H101.31V30.89Z" fill="#1D1D1B" stroke="#1D1D1B" stroke-width="0.5" stroke-linecap="round" stroke-linejoin="round"/>
<path d="M137.19 8.37988H146.19C153.62 8.37988 155.97 12.4999 155.97 17.1699V22.0599C155.97 26.7799 153.39 30.8499 146.14 30.8499H137.21C130.6 30.8499 127.42 27.7699 127.42 22.0599V17.2099C127.4 12.2699 130.12 8.37988 137.19 8.37988ZM137.42 28.1399H145.89C149.97 28.1399 152.69 26.4099 152.69 22.0599V17.2099C152.69 13.3099 150.29 11.1399 145.94 11.1399H137.42C132.98 11.1399 130.67 12.8599 130.67 17.2099V22.0999C130.67 26.1799 132.98 28.1799 137.42 28.1799V28.1399Z" fill="#1D1D1B" stroke="#1D1D1B" stroke-width="0.5" stroke-linecap="round" stroke-linejoin="round"/>
<path d="M190.52 8.51001V30.89H187.31V11.23H165.6V30.89H162.31V8.51001H190.52Z" fill="#1D1D1B" stroke="#1D1D1B" stroke-width="0.5" stroke-linecap="round" stroke-linejoin="round"/>
<path d="M200.89 28.38H201.89L220.34 8.53001H225.78V30.89H222.51V11.05H221.61L203.2 30.89H197.63V8.51001H200.89V28.38Z" fill="#1D1D1B" stroke="#1D1D1B" stroke-width="0.5" stroke-linecap="round" stroke-linejoin="round"/>
<path d="M235.91 8.51001V10.91C236.09 10.64 237.73 8.51001 242.17 8.51001H251.23C258.39 8.51001 260.75 12.51 260.75 17.3V22.19C260.75 27.31 257.89 30.89 251.23 30.89H242.44C237.77 30.89 236.09 28.76 235.91 28.49V40.05H232.65V8.51001H235.91ZM235.91 17.35V22.19C235.91 25.55 237.91 28.19 242.76 28.19H250.05C254.9 28.19 257.48 26.55 257.48 22.19V17.3C257.48 13.13 254.86 11.23 250.05 11.23H242.8C238 11.23 235.91 13.86 235.91 17.3V17.35Z" fill="#1D1D1B" stroke="#1D1D1B" stroke-width="0.5" stroke-linecap="round" stroke-linejoin="round"/>
<path d="M276.37 8.37988H285.37C292.8 8.37988 295.15 12.4999 295.15 17.1699V22.0599C295.15 26.7799 292.57 30.8499 285.32 30.8499H276.39C269.78 30.8499 266.61 27.7699 266.61 22.0599V17.2099C266.59 12.2699 269.31 8.37988 276.37 8.37988ZM276.6 28.1399H285.07C289.15 28.1399 291.87 26.4099 291.87 22.0599V17.2099C291.87 13.3099 289.47 11.1399 285.12 11.1399H276.6C272.16 11.1399 269.85 12.8599 269.85 17.2099V22.0999C269.85 26.1799 272.16 28.1799 276.6 28.1799V28.1399Z" fill="#1D1D1B" stroke="#1D1D1B" stroke-width="0.5" stroke-linecap="round" stroke-linejoin="round"/>
<path d="M301.61 8.37988H321.23C326.76 8.37988 329.23 10.6899 329.23 14.1799V15.0799C329.294 16.1154 328.966 17.137 328.312 17.9426C327.659 18.7482 326.726 19.279 325.7 19.4299C328.65 20.1099 329.82 22.1499 329.82 24.0599V25.0599C329.82 28.6399 327.38 30.8599 321.76 30.8599H301.61V8.37988ZM304.87 18.1699H321.77C324.49 18.1699 325.94 17.1699 325.94 15.0799V14.1799C325.94 12.1799 324.4 11.0999 321.68 11.0999H304.87V18.1699ZM304.87 28.1699H321.64C324.81 28.1699 326.53 27.0799 326.53 25.0799V24.0799C326.53 22.2599 325.94 20.8999 321.14 20.8999H304.87V28.1699Z" fill="#1D1D1B" stroke="#1D1D1B" stroke-width="0.5" stroke-linecap="round" stroke-linejoin="round"/>
<path d="M343.31 17.21H356.36C360.07 17.21 360.53 18.98 360.53 18.98V15.85C360.53 13.31 358.89 11.23 355 11.23H346.34C341.09 11.23 340.81 12.9 340.81 14.94H337.46C337.46 12.27 337.87 8.51001 345.53 8.51001H355.36C361.43 8.51001 363.79 11.51 363.79 16.39V30.89H360.53V29.08C360.045 29.6662 359.432 30.1339 358.739 30.4475C358.046 30.7612 357.29 30.9125 356.53 30.89H343.88C339.08 30.89 336.36 29.08 336.36 25.19V22.47C336.36 19.38 338.44 17.21 343.31 17.21ZM339.59 23.21V24.84C339.59 26.84 340.59 28.2 344.48 28.2H355.54C358.94 28.2 360.54 26.84 360.54 24.03C360.54 21.22 358.72 19.95 355.54 19.95H344.51C340.44 19.93 339.62 21.11 339.62 23.19L339.59 23.21Z" fill="#1D1D1B" stroke="#1D1D1B" stroke-width="0.5" stroke-linecap="round" stroke-linejoin="round"/>
<path d="M378.22 11.23V22.56C378.22 28.27 375.32 30.89 370.16 30.89H369.16V28.18H370.16C373.37 28.18 374.96 26.45 374.96 22.47V8.46997H400.2V30.89H396.94V11.23H378.22Z" fill="#1D1D1B" stroke="#1D1D1B" stroke-width="0.5" stroke-linecap="round" stroke-linejoin="round"/>
<path d="M410.43 17.21H427.83C432.73 17.21 434.83 19.38 434.83 22.47V25.19C434.83 29.08 432.11 30.89 427.31 30.89H407.17V8.51001H410.43V17.21ZM410.43 28.21H426.61C430.61 28.21 431.55 26.85 431.55 24.85V23.19C431.55 21.11 430.73 19.93 426.66 19.93H410.43V28.21Z" fill="#1D1D1B" stroke="#1D1D1B" stroke-width="0.5" stroke-linecap="round" stroke-linejoin="round"/>
<path d="M444.14 30.89H440.88V8.51001H444.14V17.66H465.8V8.51001H469.07V30.89H465.8V20.38H444.14V30.89Z" fill="#1D1D1B" stroke="#1D1D1B" stroke-width="0.5" stroke-linecap="round" stroke-linejoin="round"/>
<path d="M479.31 17.21H496.71C501.6 17.21 503.71 19.38 503.71 22.47V25.19C503.71 29.08 500.99 30.89 496.19 30.89H476.04V8.51001H479.31V17.21ZM479.31 28.21H495.49C499.49 28.21 500.43 26.85 500.43 24.85V23.19C500.43 21.11 499.61 19.93 495.53 19.93H479.31V28.21ZM511.94 30.92H508.67V8.51001H511.94V30.92Z" fill="#1D1D1B" stroke="#1D1D1B" stroke-width="0.5" stroke-linecap="round" stroke-linejoin="round"/>
<path d="M522.39 28.3799H523.39L541.83 8.52994H547.31V30.8899H544.05V11.0499H543.14L524.7 30.8899H519.12V8.50994H522.39V28.3799ZM541.65 0.689941C541.65 4.58994 540.47 6.84994 532.54 6.84994C524.88 6.84994 523.54 4.58994 523.54 0.689941H526.17C526.17 3.17994 527.08 4.21994 532.79 4.21994C538.09 4.21994 539 3.21994 539 0.689941H541.65Z" fill="#1D1D1B" stroke="#1D1D1B" stroke-width="0.5" stroke-linecap="round" stroke-linejoin="round"/>
<path d="M405.59 78.72V59.05H408.85V78.72H411.48V89.9601H408.4V81.44H380.67V59.05H383.93V78.72H405.59Z" fill="#1D1D1B" stroke="#1D1D1B" stroke-width="0.5" stroke-linecap="round" stroke-linejoin="round"/>
<path d="M420.13 70.47V72.65C420.13 77.27 422.8 78.72 426.34 78.72H436.94C440.57 78.72 442.15 76.82 442.15 74.28H445.42C445.42 77.54 443.65 81.44 437.49 81.44H426.49C419.97 81.44 416.89 78.63 416.89 73.1V67.21C416.89 63.13 420.24 58.96 426.4 58.96H435.83C442.26 58.96 445.44 62.68 445.44 66.85V70.47H420.13ZM436.13 61.68H425.88C422.49 61.68 420.13 64.08 420.13 67.76H442.13C442.15 63.99 439.89 61.68 436.13 61.68Z" fill="#1D1D1B" stroke="#1D1D1B" stroke-width="0.5" stroke-linecap="round" stroke-linejoin="round"/>
<path d="M455.31 81.44H452.05V59.05H455.31V68.2101H476.97V59.05H480.31V81.44H477.04V70.9301H455.31V81.44Z" fill="#1D1D1B" stroke="#1D1D1B" stroke-width="0.5" stroke-linecap="round" stroke-linejoin="round"/>
<path d="M498.1 81.44V61.7701H485.87V59.05H513.6V61.7701H501.37V81.44H498.1Z" fill="#1D1D1B" stroke="#1D1D1B" stroke-width="0.5" stroke-linecap="round" stroke-linejoin="round"/>
<path d="M522.48 59.05V61.4601C522.66 61.1801 524.29 59.05 528.73 59.05H537.79C544.95 59.05 547.31 63.0501 547.31 67.8501V72.7401C547.31 77.8601 544.46 81.44 537.79 81.44H529C524.33 81.44 522.66 79.3101 522.48 79.0401V90.5901H519.21V59.05H522.48ZM522.48 67.8901V72.7401C522.48 76.0901 524.48 78.7401 529.32 78.7401H536.62C541.46 78.7401 544.05 77.1101 544.05 72.7401V67.8501C544.05 63.6801 541.42 61.7701 536.62 61.7701H529.36C524.56 61.7701 522.48 64.4001 522.48 67.8501V67.8901Z" fill="#1D1D1B" stroke="#1D1D1B" stroke-width="0.5" stroke-linecap="round" stroke-linejoin="round"/>
<path d="M335.31 62.0901C336.87 62.0901 344.48 62.0901 345.89 61.9701C346.28 61.9701 346.13 61.6701 346.11 61.3801C346.09 61.0901 345.92 60.4601 346.38 60.1701C346.84 59.8801 347.3 60.1701 347.61 60.1101C347.61 59.9001 347.61 59.2701 347.61 59.0001C347.577 58.7727 347.609 58.5408 347.7 58.3301C348.04 57.8301 348.52 58.0401 348.95 57.9801C349.54 57.9801 350.55 57.7501 350.7 58.5901C350.7 59.0101 350.7 59.8101 350.7 60.0701C350.7 59.9801 350.55 59.9701 350.62 59.9801H350.84C352.42 59.9801 355 59.4401 355.34 61.6701C355.48 66.3801 355.34 71.8501 355.26 76.5701C355.26 77.9701 355.46 80.1301 353.48 80.2501C352.23 80.3201 350.48 80.2001 349.2 80.2501C348.73 80.2501 348.53 79.7401 348.4 79.3801L347.99 78.3801L346.31 74.4801L345.47 72.5301C345.33 72.1801 345.2 72.0001 344.87 72.0101H343.81C338.47 72.0101 331.18 72.1801 325.81 72.2401C325.45 72.2401 325.54 72.2401 325.38 72.5301L324.57 74.5301L322.95 78.3801L322.54 79.3801C322.38 79.8001 322.14 80.3801 321.62 80.5001C321.23 80.5241 320.84 80.5241 320.45 80.5001H319.39C318.54 80.4401 316.7 80.7301 315.97 80.0701C315.65 79.7766 315.409 79.408 315.267 78.9977C315.126 78.5874 315.089 78.1482 315.16 77.7201C315.16 77.0701 315.16 75.2201 315.16 74.5401C315.16 70.3701 315.16 65.9601 315.22 61.7701C315.34 60.2601 316.76 59.7701 318.07 59.9001C318.5 59.9001 319.71 59.9001 319.99 59.9001C319.9 59.9601 319.89 60.0701 319.9 60.0101C319.91 59.9501 319.9 59.4401 319.9 59.2501C319.9 58.8001 319.8 58.2501 320.38 57.9401C320.596 57.8706 320.825 57.8501 321.05 57.8801H322.05C322.295 57.8544 322.541 57.9107 322.75 58.0401C322.85 58.1308 322.925 58.2453 322.969 58.3729C323.013 58.5006 323.023 58.6372 323 58.7701C323 59.0301 322.86 59.9901 323 60.0401C323.14 60.0901 324 59.8001 324.37 60.2201C324.52 60.4201 324.42 60.8901 324.44 61.1301C324.46 61.3701 324.36 61.7501 324.68 61.8201C326 61.9701 333.74 61.9501 335.24 61.9901L335.31 62.0901ZM335.31 62.1901L326.83 62.2801C326.03 62.2101 325.12 62.5201 324.34 62.1301C323.97 61.7001 324.13 61.1301 324.08 60.5901C323.78 60.5901 323.42 60.7501 322.87 60.5901C322.32 60.4301 322.46 59.7801 322.47 59.3701C322.503 59.1178 322.503 58.8623 322.47 58.6101C322.364 58.594 322.256 58.594 322.15 58.6101C321.74 58.6101 321.15 58.6101 320.7 58.6101C320.7 58.6101 320.7 58.6101 320.7 58.7401C320.7 59.1301 320.7 59.6801 320.7 60.0701C320.699 60.1819 320.67 60.2917 320.616 60.3895C320.562 60.4873 320.484 60.57 320.39 60.6301C320.157 60.718 319.908 60.7522 319.66 60.7301C319.27 60.7301 318.47 60.7301 318.08 60.7301C317.2 60.7301 316.23 60.8001 316.18 61.8301C316.18 64.6401 316.18 71.8301 316.18 74.5101C316.18 75.1801 316.18 77.0401 316.18 77.6901C316.18 78.5301 316.18 79.4001 317.28 79.4601C318.38 79.5201 320.35 79.4601 321.38 79.4601C321.38 79.4601 321.38 79.4601 321.38 79.3901C321.79 78.4601 323.26 75.0601 323.7 74.0601L324.55 72.1201C324.639 71.8753 324.799 71.6627 325.01 71.5101C325.235 71.3827 325.493 71.3269 325.75 71.3501L335.29 71.4801C338.47 71.4801 341.66 71.5801 344.83 71.5801C345.039 71.5939 345.238 71.6727 345.399 71.8055C345.56 71.9382 345.676 72.1182 345.73 72.3201L346.55 74.3201L348.24 78.2101C348.31 78.4001 348.78 79.4501 348.87 79.6401C348.897 79.6933 348.939 79.7376 348.99 79.7678C349.041 79.7979 349.1 79.8126 349.16 79.8101H351.26C354.33 79.8101 354.77 79.8101 354.56 76.5501C354.56 75.2301 354.48 71.5501 354.46 70.1901L354.41 61.7801C354.19 60.3201 352.41 60.8501 351.31 60.7801H350.78C350.59 60.7997 350.399 60.7758 350.22 60.7101C349.94 60.6301 349.84 60.1501 349.88 59.9901C349.88 59.6501 349.88 59.0501 349.88 58.7501C349.88 58.4501 349.49 58.6701 349.35 58.6501C348.924 58.6245 348.496 58.6245 348.07 58.6501C348.048 58.9463 348.048 59.2438 348.07 59.5401V60.0901C348.069 60.2467 348.009 60.3971 347.9 60.5101C347.785 60.6035 347.638 60.6499 347.49 60.6401C347.08 60.6401 346.71 60.5101 346.49 60.6401C346.27 60.7701 346.54 61.6401 346.4 62.0001C346.36 62.1186 346.283 62.2212 346.18 62.2931C346.078 62.365 345.955 62.4025 345.83 62.4001L335.31 62.1901Z" fill="#242021"/>
<path d="M334.85 80.27C334.85 82.4 334.85 84.53 334.85 86.66C334.85 87.12 334.71 87.23 334.27 87.22C332.27 87.22 330.3 87.22 328.36 87.22C327.95 87.22 327.85 87.13 327.94 86.71C328.86 82.41 329.77 78.1133 330.67 73.82C330.75 73.44 330.89 73.33 331.26 73.34C332.21 73.34 333.16 73.34 334.11 73.34C334.83 73.34 334.83 73.34 334.83 74.09C334.843 76.1566 334.85 78.2166 334.85 80.27Z" fill="#E22685"/>
<path d="M335.82 80.2501C335.82 78.0801 335.82 75.9201 335.82 73.7501C335.82 73.4101 335.91 73.3401 336.23 73.3401C337.31 73.3401 338.38 73.3401 339.45 73.3401C339.78 73.3401 339.88 73.4701 339.94 73.7501C340.86 78.0968 341.783 82.4301 342.71 86.7501C342.77 87.0701 342.71 87.1601 342.38 87.1601C340.34 87.1601 338.3 87.1601 336.26 87.1601C335.88 87.1601 335.82 87.0101 335.82 86.6801C335.82 84.5801 335.82 82.3801 335.82 80.2501Z" fill="url(#paint2_linear_101_3)"/>
<path d="M350.31 87.2001H344.05C343.77 87.2001 343.74 87.0501 343.7 86.8401C343.02 83.6101 342.33 80.3701 341.7 77.1401C341.47 76.0401 341.25 74.9401 340.99 73.8401C340.91 73.4901 340.91 73.3301 341.36 73.3501C342.27 73.3501 343.18 73.3501 344.09 73.3501C344.33 73.3501 344.48 73.3501 344.58 73.6401C346.493 78.1001 348.41 82.5601 350.33 87.0201C350.33 87.0201 350.31 87.0801 350.31 87.2001Z" fill="black"/>
<path d="M320.31 87.2001L322.66 81.7501C323.8 79.1101 324.94 76.4701 326.06 73.8201C326.098 73.6684 326.19 73.5358 326.319 73.4474C326.448 73.3589 326.605 73.3208 326.76 73.3401C327.62 73.3401 328.48 73.3401 329.34 73.3401C329.73 73.3401 329.82 73.4401 329.74 73.8301C328.813 78.1568 327.893 82.4901 326.98 86.8301C326.98 87.0801 326.85 87.2001 326.57 87.2001H320.31Z" fill="#086AA8"/>
<defs>
<linearGradient id="paint0_linear_101_3" x1="76.66" y1="17.01" x2="82.98" y2="109.53" gradientUnits="userSpaceOnUse">
<stop stop-color="#FDDE28"/>
<stop offset="0.43" stop-color="#FDD31D"/>
<stop offset="0.9" stop-color="#FCC10C"/>
</linearGradient>
<linearGradient id="paint1_linear_101_3" x1="31.32" y1="15.0099" x2="34.3" y2="103.81" gradientUnits="userSpaceOnUse">
<stop offset="0.13" stop-color="#FDDE28"/>
<stop offset="0.46" stop-color="#FDD31D"/>
<stop offset="0.81" stop-color="#FCC10C"/>
</linearGradient>
<linearGradient id="paint2_linear_101_3" x1="335.81" y1="80.2801" x2="342.72" y2="80.2801" gradientUnits="userSpaceOnUse">
<stop stop-color="#FBBD00"/>
<stop offset="1" stop-color="#FFEB00"/>
</linearGradient>
</defs>
</svg>
