<svg width="56" height="46" viewBox="0 0 56 46" fill="none" xmlns="http://www.w3.org/2000/svg">
<path d="M14.89 13.5698C14.87 10.3591 16.0388 7.2547 18.1714 4.85444C20.3039 2.45418 23.2493 0.927834 26.44 0.569773C29.6609 0.247126 32.8837 1.16363 35.4528 3.13276C38.022 5.10189 39.7445 7.97583 40.27 11.1699C40.6404 13.2184 40.5345 15.3245 39.9606 17.3256C39.3866 19.3267 38.36 21.1691 36.96 22.7099C35.88 23.9899 34.76 25.2297 33.64 26.4697C31.593 28.6792 29.9058 31.1965 28.64 33.9296C28.5476 34.1192 28.4174 34.2882 28.2575 34.4257C28.0976 34.5633 27.9113 34.6669 27.71 34.7299C27.45 34.7299 26.95 34.39 26.82 34.08C25.23 30.3 22.54 27.3198 19.82 24.3598C17.59 21.9298 15.67 19.3597 15.13 15.9497C14.95 15.1597 14.95 14.3598 14.89 13.5698ZM27.71 6.56977C26.8207 6.55788 25.9378 6.72228 25.1123 7.05317C24.2868 7.38406 23.5349 7.87518 22.9 8.498C22.2651 9.12081 21.7598 9.86305 21.4131 10.6821C21.0664 11.5011 20.8852 12.3806 20.88 13.27C20.84 14.1838 20.9847 15.096 21.3055 15.9526C21.6264 16.8091 22.1167 17.5922 22.7472 18.2548C23.3778 18.9175 24.1355 19.4461 24.975 19.809C25.8146 20.172 26.7188 20.3622 27.6335 20.3676C28.5481 20.373 29.4545 20.1933 30.2983 19.8403C31.1421 19.4872 31.9059 18.9676 32.5442 18.3124C33.1825 17.6573 33.682 16.88 34.0129 16.0273C34.3438 15.1746 34.4993 14.2643 34.47 13.35C34.4766 12.4586 34.3065 11.5744 33.9697 10.749C33.6328 9.92359 33.1357 9.1732 32.5072 8.54096C31.8787 7.90873 31.1312 7.40713 30.3078 7.06538C29.4844 6.72363 28.6015 6.54841 27.71 6.54975V6.56977Z" fill="url(#paint0_linear_101_12)" stroke="#7C7C7C" stroke-miterlimit="10"/>
<path d="M48.95 30.23L54.23 41.8599C54.54 42.5499 54.89 43.2102 55.16 43.9102C55.54 44.9102 55.16 45.5098 54.16 45.5298C50.85 45.5298 47.55 45.5298 44.24 45.5298C43.9951 45.5307 43.7541 45.469 43.54 45.3501L29.95 37.5098C30.85 36.0998 31.69 34.7698 32.57 33.5098C32.7696 33.2543 33.0529 33.0773 33.37 33.0098C38.54 32.0498 43.72 31.15 48.95 30.23Z" fill="#7C7C7C"/>
<path d="M36.18 45.5398H1.94999C-0.0500078 45.5398 -0.369979 45.1098 0.480021 43.2498C0.998201 42.2846 1.44275 41.2818 1.80998 40.2498C2.26998 38.6198 3.34999 38.1597 4.88999 37.9197C9.42999 37.2197 13.89 36.3696 18.47 35.5896C18.8609 35.4999 19.27 35.535 19.64 35.6897C25.19 38.8497 30.71 42.0495 36.24 45.2395L36.18 45.5398Z" fill="#7C7C7C"/>
<path d="M4.04997 35.3999L7.18999 28.5098L15.62 33.3599L4.04997 35.3999Z" fill="#7C7C7C"/>
<path d="M22.48 32.21C21.72 32.21 21.15 32.38 20.79 32.21C17.42 30.32 14.07 28.37 10.79 26.21C12.73 26.21 14.67 26.21 16.61 26.21C16.8527 26.2287 17.0803 26.3352 17.25 26.5098C18.95 28.3198 20.62 30.17 22.48 32.21Z" fill="#7C7C7C"/>
<path d="M47.64 27.7101L36 29.7702L35.81 29.5299C36.5856 28.7752 37.3105 27.9705 37.98 27.1203C38.78 25.9603 39.89 26.1703 40.98 26.1203C42.3957 26.0452 43.8144 26.0452 45.23 26.1203C46.106 26.3318 46.9524 26.6506 47.75 27.07L47.64 27.7101Z" fill="#7C7C7C"/>
<defs>
<linearGradient id="paint0_linear_101_12" x1="27.69" y1="35.0999" x2="27.69" y2="0.989776" gradientUnits="userSpaceOnUse">
<stop offset="0.17" stop-color="#FBBD00"/>
<stop offset="1" stop-color="#FFEB00"/>
</linearGradient>
</defs>
</svg>
