<svg width="201" height="153" viewBox="0 0 201 153" fill="none" xmlns="http://www.w3.org/2000/svg">
<path d="M27.34 60.98C39.4902 60.98 49.34 55.8313 49.34 49.48C49.34 43.1287 39.4902 37.98 27.34 37.98C15.1897 37.98 5.33997 43.1287 5.33997 49.48C5.33997 55.8313 15.1897 60.98 27.34 60.98Z" fill="url(#paint0_linear_101_8)"/>
<path d="M36.84 48.98C47.6095 48.98 56.34 46.0698 56.34 42.48C56.34 38.8901 47.6095 35.98 36.84 35.98C26.0704 35.98 17.34 38.8901 17.34 42.48C17.34 46.0698 26.0704 48.98 36.84 48.98Z" fill="url(#paint1_linear_101_8)"/>
<path d="M24.34 24.98C35.9379 24.98 45.34 22.2937 45.34 18.98C45.34 15.6663 35.9379 12.98 24.34 12.98C12.742 12.98 3.33997 15.6663 3.33997 18.98C3.33997 22.2937 12.742 24.98 24.34 24.98Z" fill="url(#paint2_linear_101_8)"/>
<path d="M30.84 37.98C43.8187 37.98 54.34 34.6221 54.34 30.48C54.34 26.3378 43.8187 22.98 30.84 22.98C17.8613 22.98 7.33997 26.3378 7.33997 30.48C7.33997 34.6221 17.8613 37.98 30.84 37.98Z" fill="url(#paint3_linear_101_8)"/>
<path d="M165.84 40.98C174.4 40.98 181.34 34.0404 181.34 25.48C181.34 16.9196 174.4 9.97998 165.84 9.97998C157.28 9.97998 150.34 16.9196 150.34 25.48C150.34 34.0404 157.28 40.98 165.84 40.98Z" fill="url(#paint4_linear_101_8)"/>
<path d="M3.33998 34.3798C2.41698 33.9362 1.65465 33.2169 1.1584 32.3212C0.662153 31.4254 0.456493 30.3975 0.569962 29.3798C0.749961 26.8797 0.749961 24.3699 0.569962 21.8698C0.289962 18.8698 1.72998 16.9899 4.20998 15.7399C5.59359 15.0367 7.04418 14.4739 8.53999 14.0599C15.7958 12.1456 23.3458 11.6062 30.8 12.4699C35.3267 13.0452 39.8007 13.9781 44.18 15.2599C47.58 16.2099 49.31 18.5898 48.97 22.4498C48.66 25.9298 48.91 25.9298 52.12 27.1598C53.0686 27.5225 53.9851 27.9641 54.86 28.4799C55.8378 28.9585 56.6477 29.722 57.1832 30.6698C57.7187 31.6176 57.9547 32.7054 57.86 33.7899C57.655 36.2189 57.655 38.6609 57.86 41.09C58.0952 42.4481 57.8157 43.8451 57.0761 45.0082C56.3364 46.1713 55.1897 47.0168 53.86 47.3798C51.23 48.2898 50.64 49.8399 51.01 52.2399C51.06 52.5699 51.01 52.9199 51.01 53.2399C51.66 57.1099 49.53 59.1699 46.29 60.4799C45.3517 60.8727 44.3898 61.2067 43.41 61.4799C35.9422 63.3846 28.1986 63.9667 20.53 63.1998C15.61 62.7498 10.75 62.11 6.25996 59.83C3.96996 58.67 2.57996 57.0098 2.75996 54.2198C2.91996 51.7999 2.75996 49.3498 2.75996 46.9098C2.75996 43.1998 3.81999 41.5599 7.34999 40.2399C8.92999 39.6499 9.93999 38.9199 9.34999 37.0699C7.22999 36.1599 5.20998 35.3998 3.33998 34.3798ZM38.62 16.9799C28.22 14.9799 17.83 14.7399 7.62001 17.9799C6.32001 18.3999 5.23 19.4999 4.05 20.2799C5.16884 21.1754 6.39493 21.9278 7.69997 22.5199C14.2115 24.6127 21.0837 25.3444 27.89 24.6698C32.57 24.2098 37.22 23.3799 41.89 22.4999C43.25 22.2399 44.47 21.25 45.76 20.59V19.4799C43.34 18.6499 41.05 17.4599 38.62 16.9799ZM55.03 32.2999L49.03 29.5399C48.66 34.5399 44.64 35.0798 41.49 36.6898C46.03 36.1398 50.69 35.9799 55.03 32.3099V32.2999ZM25.39 28.2999V34.8199C25.52 34.8999 25.63 35.0199 25.74 35.0299C29.74 35.3499 29.74 35.35 29.74 31.34V28.34L25.39 28.2999ZM31.7 59.8698V53.4398H27.42V59.8698H31.7ZM19.7 28.3199V34.8698L23.54 35.1398V28.3199H19.7ZM28.6 47.3199L32.38 47.5099V40.9198L28.6 40.4999V47.3199ZM21.78 53.3199V59.8597H25.64V53.3199H21.78ZM38.28 47.3199V40.5399L34.28 40.9298V47.4999L38.28 47.3199ZM40.15 47.1498L43.3 46.9198V40.1798L40.15 40.5299V47.1498ZM33.52 53.08V59.7899L36.52 59.4899V52.8099L33.52 53.08ZM16.71 52.7499C16.71 54.7499 16.62 56.55 16.71 58.35C16.85 60.59 18.77 59.0798 19.87 59.9298V53.0699L16.71 52.7499ZM14.71 34.2999L17.86 34.8898C17.9959 32.8899 17.9524 30.8819 17.73 28.8898C17.61 28.2698 15.99 27.8899 14.73 27.2999L14.71 34.2999ZM31.41 34.8099L34.57 34.4298V27.7799L31.41 28.1298V34.8099ZM5.68996 45.2198C9.33996 48.2198 13.39 48.4798 17.3 49.2198C14.3 47.7198 10.62 47.17 9.3 42.85L5.68996 45.2198ZM23.69 40.0599V46.8597L26.48 47.1097V40.5299L23.69 40.0599ZM36.34 27.4899V33.9799C38.41 34.1799 39.47 33.5299 39.19 31.2999C39.1043 29.8612 39.1043 28.4186 39.19 26.9799L36.34 27.4899ZM41.22 53.3898V51.9799L38.29 52.5299V59.1L41.22 58.6097V53.3898ZM47.98 43.59C47.9001 42.3346 47.9001 41.0753 47.98 39.8199C45.29 39.3399 45.12 39.4799 45.12 42.0399C45.12 43.4999 45.12 44.9598 45.12 46.4398C47.45 46.4698 48.19 45.55 47.94 43.59H47.98ZM14.98 53.2499C14.87 52.5899 13.52 52.1399 12.23 51.2499C12.1038 53.3962 12.1405 55.549 12.34 57.6898C12.45 58.3198 13.84 58.6899 15.09 59.5099C15.206 57.4228 15.1592 55.3297 14.95 53.2499H14.98ZM21.59 39.7299L18.9 39.3597C18.9 40.7497 18.99 42.0797 18.9 43.3597C18.73 45.3097 19.12 46.6497 21.61 46.1198L21.59 39.7299ZM10.08 32.5099C10.22 33.2199 11.56 33.6899 12.74 34.5099V27.3998L9.96999 26.8199C9.82575 28.7152 9.85254 30.6195 10.05 32.5099H10.08ZM42.69 57.7299C45.37 58.0999 44.69 57.4 44.55 50.83C41.34 52.79 43.56 55.6499 42.66 57.7299H42.69ZM41.01 32.9298C43.66 31.2198 41.91 28.5799 42.15 26.3199C39.49 28.0599 41.34 30.6999 40.98 32.9799L41.01 32.9298ZM50.01 45.6498C52.61 43.4898 50.74 40.8498 51.49 38.6498C49.42 38.9798 49.01 41.0498 49.94 45.6498H50.01ZM46.66 56.3798C48.5 54.5398 47.33 52.24 47.36 50.1C45.73 51.98 46.69 54.2498 46.59 56.3798H46.66ZM45.34 25.0399C43.34 26.8499 44.73 29.2498 44.44 31.3698C46.34 29.4898 45.14 27.1699 45.34 25.0399ZM53.34 43.7799C54.9 41.8399 53.93 39.5698 54.01 37.4298C52.55 39.3898 53.57 41.6699 53.34 43.7799Z" fill="#7C7C7C"/>
<path d="M186.67 63.3999C189.84 56.3399 192.97 49.3999 196.22 42.1399C197.619 45.6633 198.831 49.2584 199.85 52.9099C200.59 56.0599 198.85 58.6 195.62 59.96C192.69 61.2 189.68 62.2499 186.67 63.3999Z" fill="#7C7C7C"/>
<path d="M191.82 30.8899L186.51 28.49C184.09 27.39 182.22 28.06 181.13 30.49C178.01 37.41 174.9 44.3334 171.8 51.2601C171.746 51.4521 171.719 51.6507 171.72 51.8501L165.54 49.0801C165.04 48.8601 164.54 48.62 164.03 48.41C163.599 48.1833 163.124 48.0513 162.638 48.0225C162.151 47.9937 161.664 48.0686 161.209 48.2427C160.754 48.4168 160.341 48.6859 159.998 49.032C159.655 49.3781 159.39 49.7934 159.22 50.25C158.36 52.06 157.57 53.9 156.75 55.72C156.13 57.11 155.5 58.4899 154.88 59.8799C153.75 62.4299 154.39 64.1501 156.88 65.2901C160.267 66.8234 163.657 68.3401 167.05 69.8401C167.375 69.9561 167.71 70.0431 168.05 70.1001L167.98 70.43C167.74 70.54 167.5 70.6701 167.25 70.7601C150.463 77.1467 133.67 83.5366 116.87 89.93C112.65 91.54 109.07 89.93 107.47 85.73C101.723 70.6367 95.9866 55.5467 90.26 40.46C88.97 37.05 89.87 33.9301 92.79 32.1001C94.0459 31.4319 95.3616 30.8827 96.72 30.46L127.34 18.8101L157.06 7.52007C162.55 5.43007 168.06 3.32006 173.55 1.26006C175.051 0.69539 176.71 0.719731 178.194 1.32817C179.678 1.93661 180.877 3.0841 181.55 4.54009C181.93 5.32009 182.29 6.11998 182.6 6.92998C185.487 14.5033 188.37 22.0766 191.25 29.6499L191.82 30.8899ZM158.22 15.8001C157.035 16.2579 155.955 16.9495 155.043 17.8338C154.131 18.7181 153.407 19.7771 152.913 20.9473C152.42 22.1176 152.167 23.3752 152.17 24.6453C152.173 25.9154 152.431 27.1721 152.93 28.3401C153.538 29.7295 154.48 30.9464 155.674 31.8821C156.867 32.8178 158.274 33.4428 159.768 33.7015C161.262 33.9601 162.797 33.8443 164.236 33.3641C165.674 32.8839 166.971 32.0544 168.01 30.95C168.202 30.703 168.45 30.5046 168.733 30.3709C169.016 30.2372 169.327 30.1718 169.64 30.18C171.237 30.1273 172.791 29.6504 174.143 28.7981C175.495 27.9459 176.596 26.7492 177.332 25.3309C178.068 23.9125 178.413 22.3238 178.332 20.7278C178.251 19.1319 177.746 17.5864 176.87 16.25C176.123 15.1225 175.129 14.1794 173.964 13.492C172.799 12.8046 171.493 12.3909 170.145 12.282C168.796 12.1732 167.441 12.3722 166.181 12.8638C164.92 13.3554 163.788 14.1268 162.87 15.1199C162.586 15.3503 162.235 15.4836 161.87 15.5C160.7 15.63 159.46 15.7101 158.22 15.8001ZM108.34 43.5401L109.88 47.5901L111.45 51.72L114.35 50.6199L112.45 45.6199L117.18 43.8201C116.659 43.0895 115.935 42.5276 115.098 42.2041C114.261 41.8807 113.347 41.8097 112.47 42C111.059 42.4164 109.679 42.931 108.34 43.5401ZM139.78 58.66H139.66C139.558 58.3904 139.441 58.1267 139.31 57.8699C139.13 57.4385 138.79 57.0934 138.361 56.907C137.933 56.7206 137.448 56.7073 137.01 56.8699C136.769 56.9095 136.539 57.001 136.337 57.138C136.134 57.2749 135.964 57.4543 135.838 57.6634C135.711 57.8725 135.632 58.1066 135.604 58.3494C135.577 58.5923 135.603 58.8382 135.68 59.0701C135.921 60.026 136.284 60.9469 136.76 61.8101C136.845 62.0038 136.967 62.1788 137.119 62.325C137.272 62.4712 137.452 62.5857 137.649 62.6619C137.846 62.7382 138.056 62.7746 138.268 62.7691C138.479 62.7636 138.687 62.7163 138.88 62.6299C139.98 62.2199 140.31 61.8199 140.2 60.6299C140.087 59.9644 139.934 59.3065 139.74 58.66H139.78ZM114.13 68.8501C114.46 69.3601 114.81 69.9601 115.22 70.5201C115.452 70.8147 115.784 71.0133 116.153 71.0779C116.522 71.1425 116.902 71.0684 117.22 70.8699C117.563 70.7711 117.862 70.5593 118.069 70.2688C118.276 69.9783 118.379 69.6263 118.36 69.2701C118.334 68.0409 117.921 66.8511 117.18 65.8699C116.964 65.5079 116.621 65.2398 116.218 65.1177C115.815 64.9956 115.38 65.0285 115 65.21C114.591 65.3145 114.238 65.5719 114.012 65.929C113.787 66.2861 113.708 66.7159 113.79 67.1299C113.82 67.6699 113.96 68.1901 114.09 68.8501H114.13ZM126.8 63.95C126.44 63.41 126.06 62.78 125.61 62.2C125.16 61.62 124.38 61.66 123.68 61.93C123.351 62.0127 123.058 62.2035 122.85 62.4717C122.641 62.74 122.529 63.0702 122.53 63.41C122.52 64.7055 122.954 65.9655 123.76 66.98C123.98 67.3203 124.318 67.5681 124.708 67.6768C125.099 67.7855 125.516 67.7476 125.88 67.5701C126.277 67.4811 126.624 67.2444 126.853 66.9082C127.081 66.5721 127.173 66.1616 127.11 65.7601C127 65.1901 126.88 64.63 126.76 63.98L126.8 63.95ZM109.8 70.46H109.91C110.021 70.8291 110.158 71.1901 110.32 71.5401C110.407 71.775 110.541 71.9897 110.713 72.1714C110.885 72.3531 111.093 72.4979 111.323 72.597C111.553 72.6961 111.801 72.7476 112.051 72.7481C112.302 72.7486 112.55 72.6983 112.78 72.6001C113.024 72.54 113.252 72.4268 113.448 72.2688C113.644 72.1109 113.803 71.9121 113.914 71.6861C114.024 71.4601 114.084 71.2126 114.089 70.961C114.093 70.7094 114.042 70.4599 113.94 70.23C113.686 69.3087 113.32 68.4222 112.85 67.5901C112.622 67.2591 112.292 67.0109 111.911 66.8829C111.53 66.7549 111.117 66.7538 110.735 66.8799C110.354 67.0061 110.023 67.2526 109.793 67.5826C109.563 67.9125 109.446 68.3081 109.46 68.71C109.45 69.28 109.6 69.87 109.72 70.46H109.8ZM122.49 65.68C122.15 65.14 121.8 64.5701 121.41 64.0201C121.196 63.7057 120.872 63.4831 120.501 63.396C120.131 63.309 119.742 63.364 119.41 63.5501C119.048 63.6354 118.727 63.8432 118.501 64.1385C118.275 64.4338 118.158 64.7983 118.17 65.17C118.194 66.459 118.644 67.704 119.45 68.71C119.668 69.033 119.997 69.2657 120.374 69.365C120.751 69.4643 121.151 69.4235 121.5 69.25C121.897 69.1589 122.245 68.9226 122.476 68.5877C122.708 68.2527 122.805 67.8433 122.75 67.44C122.64 66.87 122.52 66.31 122.41 65.68H122.49ZM140.28 58.3301C140.53 58.9001 140.71 59.4199 140.97 59.8899C141.134 60.3332 141.467 60.6935 141.896 60.8921C142.325 61.0907 142.816 61.1115 143.26 60.95C144.34 60.62 144.88 59.9499 144.61 58.8799C144.304 57.7517 143.843 56.6714 143.24 55.67C142.83 54.95 142.05 54.92 141.24 55.24C140.878 55.3307 140.56 55.5456 140.34 55.8472C140.121 56.1488 140.015 56.5178 140.04 56.8899C140.02 57.3999 140.14 57.8901 140.2 58.3301H140.28ZM144.78 57.16C145.09 57.66 145.41 58.2501 145.78 58.7901C146.01 59.1069 146.35 59.3258 146.733 59.4036C147.117 59.4814 147.515 59.4123 147.85 59.21C148.61 58.9 149.17 58.3801 148.96 57.5401C148.707 56.4313 148.338 55.3522 147.86 54.3201C147.776 54.1264 147.654 53.9516 147.5 53.8062C147.347 53.6608 147.166 53.5477 146.968 53.4739C146.77 53.4002 146.559 53.3671 146.348 53.3768C146.137 53.3864 145.93 53.4386 145.74 53.5301C145.527 53.5719 145.325 53.6552 145.144 53.7754C144.964 53.8956 144.809 54.0503 144.688 54.2305C144.567 54.4107 144.483 54.6128 144.44 54.8255C144.398 55.0382 144.398 55.2573 144.44 55.47C144.45 55.98 144.58 56.53 144.7 57.16H144.78ZM135.52 60.6299H135.43C135.3 60.2999 135.21 59.9499 135.05 59.6299C134.976 59.3992 134.856 59.1858 134.698 59.002C134.539 58.8182 134.346 58.6677 134.129 58.5596C133.912 58.4516 133.676 58.388 133.434 58.3726C133.192 58.3572 132.949 58.3904 132.72 58.47C132.469 58.5034 132.229 58.593 132.017 58.7322C131.806 58.8714 131.629 59.0567 131.499 59.274C131.369 59.4913 131.29 59.735 131.268 59.9871C131.245 60.2393 131.28 60.4933 131.37 60.73C131.599 61.6898 131.962 62.6124 132.45 63.47C132.634 63.8537 132.962 64.1497 133.362 64.2937C133.763 64.4378 134.204 64.4185 134.59 64.24C134.807 64.195 135.013 64.1073 135.195 63.982C135.378 63.8567 135.534 63.6962 135.654 63.5101C135.774 63.3239 135.856 63.1158 135.894 62.8978C135.933 62.6797 135.928 62.4562 135.88 62.24C135.71 61.75 135.56 61.1899 135.44 60.6299H135.52ZM109.72 52.3999L108.48 49.1399L105.31 50.3401L106.56 53.6001L109.72 52.3999ZM114.85 46.7L116.1 49.97L119.25 48.7701L118.01 45.5L114.85 46.7ZM138.32 71.5401L138.18 71.6399C137.51 71.0999 136.81 70.64 136.18 70C136.084 69.867 135.959 69.757 135.815 69.6785C135.671 69.6 135.511 69.5548 135.347 69.5462C135.183 69.5376 135.019 69.5658 134.867 69.6287C134.715 69.6917 134.58 69.7877 134.47 69.91C134.98 71.24 135.47 72.59 136.03 73.91C136.11 74.11 136.58 74.14 136.88 74.25L137.03 73.97L135.81 70.7801C136.81 71.5801 137.6 72.1601 138.32 72.7801C138.83 73.2301 139.32 73.3599 139.82 72.8799L138.11 68.3799L137.28 68.7701L138.32 71.5401ZM114.69 79.23L114.84 79.1299C115.6 79.7499 116.34 80.42 117.15 80.98C117.615 81.1779 118.107 81.3059 118.61 81.3599L116.77 76.5301L115.97 76.94L116.97 79.68C116.184 79.2168 115.449 78.6704 114.78 78.0501C114.694 77.9241 114.579 77.8195 114.446 77.7444C114.313 77.6694 114.165 77.6257 114.012 77.617C113.86 77.6083 113.707 77.6347 113.566 77.6941C113.425 77.7536 113.3 77.8446 113.2 77.96L114.93 82.5L115.74 82.0701L114.69 79.23ZM125.77 78.3201C125.488 77.6672 125.241 76.9995 125.03 76.3201C124.97 76.0701 125.24 75.74 125.35 75.45C125.6 75.62 125.96 75.73 126.08 75.97C126.377 76.6229 126.641 77.2905 126.87 77.97L127.74 77.5201C127.548 76.8812 127.304 76.259 127.01 75.66C126.74 75.2 126.33 74.6601 125.89 74.5301C125.45 74.4001 124.96 74.95 124.48 75.2V75.1399L121.65 76.0201L122.92 79.3501L123.76 79.0301C123.484 78.3781 123.247 77.7102 123.05 77.0301C122.99 76.7701 123.23 76.4299 123.34 76.1399C123.6 76.2999 123.97 76.4099 124.09 76.6399C124.381 77.2931 124.638 77.9606 124.86 78.6399L125.77 78.3201ZM148.2 69.7701L149.07 69.43C148.876 68.8061 148.635 68.1976 148.35 67.6099C148.09 67.1499 147.7 66.52 147.27 66.44C146.84 66.36 146.27 66.8401 145.77 67.0701V66.98L143.04 67.8599L144.33 71.2601L145.15 70.8501C144.883 70.2333 144.649 69.6022 144.45 68.96C144.442 68.6523 144.497 68.3463 144.61 68.0601C144.91 68.2201 145.34 68.3001 145.48 68.5501C145.78 69.1705 146.034 69.8122 146.24 70.47L147.13 70.1299C146.864 69.5283 146.637 68.9105 146.45 68.2801C146.443 67.939 146.501 67.5997 146.62 67.2801C146.92 67.4801 147.33 67.6099 147.49 67.8899C147.748 68.4997 147.958 69.1283 148.12 69.7701H148.2ZM115.94 55.18L114.94 52.47L112.2 53.5201L113.2 56.22L115.94 55.18ZM143.39 71.5101C143.13 70.8301 142.87 70.1099 142.59 69.3999C142.55 69.2343 142.475 69.0795 142.369 68.9463C142.262 68.8132 142.128 68.7051 141.975 68.6297C141.823 68.5543 141.655 68.5134 141.485 68.5101C141.315 68.5067 141.146 68.5406 140.99 68.6099C140.19 68.8699 139.46 69.18 139.62 70.22C140.52 70.57 140.62 68.8401 141.75 69.5801C141.276 69.8531 140.842 70.1896 140.46 70.5801C140.326 70.7713 140.234 70.9885 140.189 71.2176C140.144 71.4467 140.148 71.6824 140.2 71.91C140.34 72.0771 140.519 72.2066 140.722 72.2869C140.924 72.3672 141.144 72.3958 141.36 72.3699C142.064 72.1527 142.744 71.8647 143.39 71.5101ZM149.96 67.46L152.28 66.5701C151.89 65.3601 151.28 64.8701 150.35 65.0501C149.896 65.0909 149.476 65.3069 149.18 65.6524C148.883 65.9978 148.732 66.4453 148.76 66.8999C148.775 67.3853 148.965 67.849 149.296 68.2041C149.628 68.5593 150.077 68.7818 150.56 68.8301C151.56 68.8301 152.34 68.1601 152.45 66.8301C152.095 67.1906 151.714 67.5248 151.31 67.8301C150.86 68.0801 150.34 68.24 149.96 67.46ZM131.14 75.19C130.22 75.02 129.78 76.9801 128.57 75.5901L130.97 74.68C130.55 73.45 129.97 72.98 129.03 73.17C128.792 73.1849 128.56 73.251 128.35 73.3636C128.14 73.4761 127.957 73.6326 127.812 73.8223C127.668 74.0121 127.567 74.2306 127.514 74.4632C127.462 74.6957 127.461 74.9368 127.51 75.17C127.52 75.6398 127.711 76.0879 128.042 76.4212C128.373 76.7544 128.82 76.9473 129.29 76.96C129.53 76.9738 129.77 76.9381 129.995 76.855C130.221 76.772 130.426 76.6434 130.6 76.4773C130.773 76.3113 130.911 76.1114 131.004 75.8899C131.097 75.6685 131.143 75.4301 131.14 75.19ZM118.34 78.6199C118.647 78.2792 118.981 77.9649 119.34 77.68C119.59 77.577 119.859 77.5261 120.13 77.5301C120.064 77.7625 119.959 77.9821 119.82 78.18C119.55 78.45 119.06 78.5899 118.94 78.8899C118.77 79.3066 118.77 79.7733 118.94 80.19C119.077 80.3223 119.244 80.4189 119.427 80.4712C119.611 80.5236 119.804 80.5301 119.99 80.49C120.677 80.2537 121.346 79.9661 121.99 79.6299C121.74 78.9699 121.45 78.2999 121.23 77.6299C121.206 77.4618 121.145 77.3014 121.051 77.16C120.957 77.0185 120.833 76.8998 120.687 76.8125C120.541 76.7253 120.378 76.6718 120.209 76.6558C120.04 76.6398 119.869 76.6617 119.71 76.72C118.63 76.98 118.34 77.3899 118.34 78.6199ZM106.59 44.3301C105.964 44.8186 105.468 45.4535 105.145 46.179C104.823 46.9045 104.684 47.6981 104.74 48.49L107.74 47.3501L106.59 44.3301ZM107.5 55.2701C107.974 55.7776 108.56 56.168 109.21 56.4109C109.861 56.6539 110.559 56.7426 111.25 56.67L110.31 54.2L107.5 55.2701ZM119.5 50.72L116.65 51.8001L117.6 54.2801C118.163 53.8628 118.629 53.3285 118.965 52.7139C119.302 52.0993 119.501 51.4191 119.55 50.72H119.5Z" fill="#7C7C7C"/>
<path d="M173.34 56.5L184.48 31.6199L194.75 36.1699C189.51 47.8399 184.24 59.5499 179.02 71.1699L158.02 61.76C159.51 58.49 161.02 55.0699 162.61 51.6799L173.34 56.5Z" fill="#7C7C7C"/>
<path d="M167.76 27.4399L166.08 29.51L166.56 29.81C165.515 30.9532 164.126 31.7255 162.604 32.0105C161.082 32.2955 159.508 32.0776 158.12 31.3899C156.593 30.6452 155.364 29.4028 154.637 27.8669C153.91 26.3311 153.728 24.5933 154.12 22.9399C154.51 21.3074 155.445 19.8565 156.77 18.8259C158.095 17.7954 159.732 17.2467 161.41 17.27L160.95 18.74C161.73 18.44 162.42 18.2099 163.07 17.9199C163.92 17.5399 164.34 18.2098 165.07 18.6098C163.74 19.1098 162.63 19.6099 161.47 19.9599C160.64 20.2199 160.28 20.6201 160.61 21.5701L164.84 19.9599C166.05 19.4999 166.05 19.4999 166.84 20.6899L160.75 23.01L160.94 24.1799L167.39 21.73C168.02 23.06 168.02 23.06 166.8 23.53L161.56 25.53L162.27 26.53L167.91 24.3899C168.26 25.3899 167.97 25.94 166.91 26.25C165.68 26.61 164.49 27.1398 163.26 27.6098C163.317 27.7794 163.413 27.9332 163.54 28.0588C163.668 28.1844 163.823 28.2785 163.993 28.333C164.164 28.3875 164.344 28.4011 164.521 28.3728C164.698 28.3445 164.865 28.2749 165.01 28.1699C165.83 27.7799 166.7 27.5099 167.54 27.1699L167.76 27.4399Z" fill="#7C7C7C"/>
<path d="M138.69 59.4599C138.853 59.9177 138.974 60.3897 139.05 60.8698C139.05 61.1098 138.83 61.56 138.64 61.6C138.482 61.6275 138.319 61.6163 138.166 61.5676C138.013 61.5188 137.873 61.434 137.76 61.32C137.352 60.4562 137.018 59.5596 136.76 58.6398C136.772 58.481 136.822 58.3275 136.905 58.1918C136.989 58.0562 137.104 57.9422 137.24 57.8598C137.399 57.8377 137.562 57.8544 137.713 57.9084C137.864 57.9624 138.001 58.0521 138.11 58.1699C138.356 58.5743 138.551 59.0076 138.69 59.4599Z" fill="#7C7C7C"/>
<path d="M116.85 67.6698C117.002 68.1386 117.109 68.6207 117.17 69.1098C117.169 69.2706 117.133 69.4294 117.064 69.5746C116.995 69.7198 116.894 69.848 116.77 69.9498C116.627 69.9811 116.479 69.9755 116.339 69.9335C116.199 69.8915 116.072 69.8145 115.97 69.7099C115.551 68.7832 115.191 67.8312 114.89 66.8598C114.83 66.6798 115.12 66.2298 115.33 66.1698C115.477 66.1442 115.628 66.1556 115.769 66.2028C115.91 66.2499 116.038 66.3313 116.14 66.4398C116.418 66.8242 116.656 67.2364 116.85 67.6698Z" fill="#7C7C7C"/>
<path d="M125.68 64.49C125.803 64.9483 125.883 65.4169 125.92 65.8899C125.915 66.0355 125.875 66.1779 125.804 66.305C125.733 66.432 125.632 66.5399 125.51 66.6199C125.37 66.6546 125.223 66.6517 125.084 66.6113C124.945 66.571 124.82 66.4945 124.72 66.3899C124.295 65.4716 123.931 64.5264 123.63 63.5601C123.631 63.4152 123.67 63.2732 123.744 63.1485C123.818 63.0237 123.924 62.9208 124.05 62.8501C124.205 62.833 124.361 62.852 124.507 62.9058C124.652 62.9596 124.784 63.0465 124.89 63.1599C125.187 63.5825 125.451 64.0272 125.68 64.49Z" fill="#7C7C7C"/>
<path d="M110.85 69.98C110.679 69.5355 110.561 69.0724 110.5 68.6001C110.505 68.4379 110.55 68.2793 110.63 68.1382C110.71 67.9971 110.823 67.8776 110.96 67.7901C111.104 67.7632 111.253 67.7727 111.393 67.8181C111.533 67.8636 111.659 67.9434 111.76 68.0501C112.176 68.9481 112.53 69.8736 112.82 70.8201C112.818 70.9674 112.778 71.1116 112.704 71.2393C112.631 71.367 112.526 71.4739 112.4 71.5501C112.257 71.585 112.107 71.584 111.964 71.5474C111.821 71.5108 111.689 71.4397 111.58 71.3401C111.299 70.9083 111.054 70.4532 110.85 69.98Z" fill="#7C7C7C"/>
<path d="M119.54 66.77C119.414 66.2394 119.321 65.7017 119.26 65.1599C119.265 65.0288 119.304 64.9013 119.372 64.7893C119.44 64.6773 119.536 64.5846 119.65 64.52C119.89 64.46 120.38 64.52 120.45 64.72C120.875 65.6701 121.243 66.6452 121.55 67.6399C121.61 67.8099 121.36 68.19 121.17 68.28C121.043 68.321 120.908 68.3296 120.777 68.3052C120.646 68.2807 120.524 68.2238 120.42 68.1399C120.092 67.7063 119.798 67.2484 119.54 66.77Z" fill="#7C7C7C"/>
<path d="M143.02 57.6899C143.206 58.1364 143.34 58.6029 143.42 59.08C143.42 59.37 143.23 59.8698 143.04 59.9198C142.861 59.9656 142.673 59.9609 142.496 59.9062C142.32 59.8514 142.162 59.7488 142.04 59.6098C141.627 58.7758 141.292 57.9056 141.04 57.0099C141.043 56.8495 141.085 56.6922 141.161 56.5512C141.238 56.4102 141.347 56.2897 141.48 56.1999C141.652 56.1916 141.825 56.2205 141.985 56.2843C142.146 56.3482 142.29 56.4455 142.41 56.57C142.663 56.9143 142.868 57.2908 143.02 57.6899Z" fill="#7C7C7C"/>
<path d="M145.85 56.7299C145.681 56.2677 145.563 55.7881 145.5 55.2999C145.509 55.1403 145.557 54.985 145.639 54.8475C145.721 54.7101 145.834 54.5944 145.97 54.5099C146.116 54.4825 146.267 54.494 146.407 54.5431C146.548 54.5922 146.673 54.6773 146.77 54.7899C147.187 55.6897 147.538 56.6189 147.82 57.57C147.815 57.7189 147.771 57.8639 147.694 57.9916C147.617 58.1193 147.509 58.2255 147.38 58.2999C147.234 58.331 147.083 58.3252 146.94 58.2833C146.797 58.2414 146.666 58.1648 146.56 58.0599C146.281 57.6408 146.043 57.1953 145.85 56.7299Z" fill="#7C7C7C"/>
<path d="M134.34 61.04C134.527 61.4882 134.655 61.9587 134.72 62.44C134.704 62.6137 134.651 62.7821 134.565 62.9338C134.479 63.0856 134.361 63.2173 134.22 63.3201C134.06 63.4101 133.51 63.16 133.4 62.94C132.998 62.1083 132.663 61.2454 132.4 60.3599C132.396 60.2021 132.429 60.0456 132.497 59.9031C132.564 59.7606 132.665 59.6363 132.79 59.54C132.945 59.5117 133.105 59.5202 133.256 59.5654C133.407 59.6106 133.546 59.6911 133.66 59.8001C133.925 60.1915 134.152 60.6066 134.34 61.04Z" fill="#7C7C7C"/>
<path d="M67.43 104.98L67.7 104.53L28.64 81.2C28.88 80.76 28.9 80.68 28.95 80.65C43.67 73.3833 58.3933 66.1333 73.12 58.9C73.4737 58.7838 73.8472 58.7399 74.2182 58.7708C74.5892 58.8018 74.9503 58.907 75.28 59.0802C80.9 62.0202 86.41 65.2101 92.1 68.0201C114.72 79.2001 138.26 88.09 162.2 95.94L178.03 101.11L173.36 104.11L176.16 105.71L172.86 107.96L176.26 109.67L171.99 112.5L176.26 114.61L172.32 117.31L176.32 119.31L172.8 121.66L176.18 123.37C176.013 123.55 175.832 123.717 175.64 123.87C161.12 133.29 146.59 142.693 132.05 152.08C131.716 152.245 131.352 152.339 130.98 152.356C130.609 152.373 130.237 152.313 129.89 152.18C115.89 146.18 101.73 140.4 87.89 134.07C79.42 130.21 71.2299 125.68 63.0699 121.19C51.5299 114.85 40.14 108.26 28.54 101.69L29.6 100.17L67.6 121.93C67.73 119.59 67.6899 119.66 65.1299 118.16C52.9199 111.05 40.75 103.9 28.37 96.66L29.55 95.1002L67.34 117.69L68.08 116.82C67.6197 116.102 67.0532 115.458 66.4 114.91C57.14 109.35 47.7999 103.91 38.5599 98.3001C35.1699 96.2501 31.97 93.91 28.62 91.66L29.68 90.3599C29.68 90.3599 29.79 90.3599 29.9 90.3599C42.0052 98.7214 54.5681 106.4 67.53 113.36C67.671 113.095 67.7533 112.803 67.7714 112.504C67.7895 112.204 67.7429 111.904 67.6348 111.624C67.5266 111.344 67.3594 111.091 67.1447 110.882C66.9299 110.672 66.6724 110.511 66.39 110.41C60.48 107.16 54.51 103.98 48.73 100.5C41.96 96.4201 35.37 92.0601 28.59 87.7501C29 87.1401 29.2299 86.75 29.4999 86.41C29.5599 86.33 29.74 86.3301 29.93 86.2801C41.9131 94.714 54.5422 102.19 67.7 108.64C67.4543 107.711 66.8874 106.9 66.1 106.35C53.3784 99.6126 41.0638 92.1329 29.22 83.95L28.64 83.5501L29.7499 82.2C41.8201 90.5756 54.4049 98.184 67.43 104.98ZM104.62 117.88C108.16 119.39 111.73 120.83 115.34 122.15C116.253 122.426 117.236 122.343 118.09 121.92C122.48 119.53 126.97 117.47 132.09 118.24C134.309 118.725 136.499 119.333 138.65 120.06C139.29 120.23 140.17 120.48 140.65 120.2C145.83 117.04 150.96 113.8 156.11 110.57C153.03 106.57 152.54 103.1 157.11 98.1002C153.43 96.8302 149.83 95.6202 146.25 94.3402C141.16 92.5302 136.11 90.63 131.01 88.87C130.17 88.567 129.246 88.5994 128.43 88.96C116.21 96.1734 104.02 103.427 91.86 110.72L90.41 111.61C95.34 113.81 99.98 115.9 104.62 117.88ZM67.4999 99.88C67.724 99.9838 67.968 100.038 68.215 100.038C68.4619 100.038 68.7059 99.9838 68.93 99.88C80.8367 92.8 92.7333 85.6968 104.62 78.5702C104.71 78.5702 104.74 78.3401 104.8 78.2301C98.02 74.9101 91.26 71.5701 84.47 68.3001C83.8672 68.0555 83.1928 68.0555 82.59 68.3001C79.8467 69.6383 76.819 70.2883 73.7682 70.1942C70.7175 70.1001 67.7355 69.2647 65.08 67.7601C64.6971 67.5439 64.2447 67.4866 63.8199 67.6002C58.6599 70.0802 53.52 72.6 48.3 75.16C50.96 79.77 51 84.1601 47.99 88.7601C54.58 92.5401 61.0299 96.23 67.4999 99.88ZM88.4 124.05C102.1 129.77 115.76 135.59 129.46 141.3C129.872 141.454 130.311 141.521 130.75 141.497C131.189 141.473 131.618 141.358 132.01 141.16C145.43 132.55 158.8 123.85 172.29 115.1C172.074 114.824 171.805 114.594 171.498 114.425C171.191 114.256 170.853 114.151 170.504 114.117C170.155 114.082 169.803 114.119 169.469 114.224C169.135 114.329 168.826 114.502 168.56 114.73C156.69 122.51 144.74 130.17 132.86 137.95C132.368 138.334 131.778 138.571 131.157 138.635C130.536 138.699 129.91 138.586 129.35 138.31C115.457 132.523 101.553 126.763 87.64 121.03C87.34 120.9 87.03 120.8 86.64 120.66C86.13 122.54 86.8 123.39 88.4 124.05ZM168.93 119.44C156.93 127.29 144.93 135.04 132.93 142.88C132.444 143.28 131.855 143.535 131.231 143.616C130.607 143.697 129.972 143.602 129.4 143.34C115.8 137.56 102.193 131.803 88.58 126.07L86.79 125.32C86.32 126.57 86.4 127.39 87.66 128.01C101.462 134.804 115.607 140.876 130.04 146.2C130.443 146.273 130.856 146.265 131.256 146.177C131.656 146.09 132.034 145.924 132.37 145.69C142.37 139.263 152.347 132.797 162.3 126.29L172.45 119.68C171.18 118.47 170.21 118.61 168.93 119.44ZM88.02 132.3C101.98 138.3 115.94 144.3 129.9 150.3C130.228 150.412 130.576 150.453 130.92 150.42C131.265 150.388 131.599 150.282 131.9 150.11C145.08 141.61 158.24 133.077 171.38 124.51C171.65 124.33 171.9 124.1 172.17 123.88C170.95 122.88 170.95 122.88 169.68 123.73L137.34 144.63C135.34 145.95 133.34 148.07 131.16 148.3C128.98 148.53 126.58 146.96 124.35 146C112.14 140.72 99.96 135.37 87.77 130.05L86.68 129.59C86.06 131.12 86.84 131.79 88.02 132.3ZM87.68 119.04C101.747 124.927 115.84 130.753 129.96 136.52C130.325 136.608 130.703 136.621 131.073 136.557C131.443 136.494 131.796 136.355 132.11 136.15C144.717 128.05 157.313 119.913 169.9 111.74L172.28 110.21C171.5 108.68 170.61 109.37 169.8 109.9C165.04 112.99 160.3 116.11 155.54 119.2C147.84 124.2 140.15 129.2 132.39 134.2C131.97 134.416 131.511 134.544 131.039 134.577C130.568 134.609 130.096 134.546 129.65 134.39C115.603 128.65 101.573 122.86 87.5599 117.02C87.3199 116.92 87.0599 116.85 86.8099 116.77L86.1899 117.26C86.6799 117.84 87.04 118.77 87.68 119.04ZM169.81 106.33C157.317 114.13 144.84 121.957 132.38 129.81C131.671 130.335 130.84 130.671 129.965 130.787C129.091 130.902 128.201 130.793 127.38 130.47C114.357 126.027 101.593 120.855 89.15 114.98C88.3641 114.555 87.4836 114.335 86.59 114.34C86.9459 114.631 87.3275 114.888 87.73 115.11C101.8 120.94 115.87 126.78 129.98 132.53C130.378 132.623 130.791 132.634 131.193 132.562C131.596 132.49 131.979 132.336 132.32 132.11C142.94 125.26 153.52 118.34 164.11 111.45C166.85 109.67 169.61 107.91 172.36 106.15L172.05 105.44C171.277 105.666 170.527 105.964 169.81 106.33Z" fill="#7C7C7C"/>
<path d="M96.77 110.98C102.082 112.415 107.674 112.463 113.01 111.12C118.82 109.8 124.23 107.6 128.45 103.12C130.018 101.589 131.039 99.5853 131.357 97.4172C131.675 95.2492 131.272 93.0366 130.21 91.1199L96.77 110.98Z" fill="#7C7C7C"/>
<path d="M99.63 78.44C95.5273 77.1409 91.1646 76.89 86.94 77.71C80.78 78.71 75.03 80.7099 70.24 84.8699C66.24 88.3599 65.24 93.15 67.56 97.41L99.63 78.44Z" fill="#7C7C7C"/>
<defs>
<linearGradient id="paint0_linear_101_8" x1="27.24" y1="60.98" x2="27.45" y2="37.98" gradientUnits="userSpaceOnUse">
<stop offset="0.17" stop-color="#FBBD00"/>
<stop offset="1" stop-color="#FFEB00"/>
</linearGradient>
<linearGradient id="paint1_linear_101_8" x1="36.78" y1="48.99" x2="36.9" y2="35.98" gradientUnits="userSpaceOnUse">
<stop offset="0.17" stop-color="#FBBD00"/>
<stop offset="1" stop-color="#FFEB00"/>
</linearGradient>
<linearGradient id="paint2_linear_101_8" x1="24.29" y1="24.99" x2="24.4" y2="12.98" gradientUnits="userSpaceOnUse">
<stop offset="0.17" stop-color="#FBBD00"/>
<stop offset="1" stop-color="#FFEB00"/>
</linearGradient>
<linearGradient id="paint3_linear_101_8" x1="30.78" y1="37.99" x2="30.91" y2="22.98" gradientUnits="userSpaceOnUse">
<stop offset="0.17" stop-color="#FBBD00"/>
<stop offset="1" stop-color="#FFEB00"/>
</linearGradient>
<linearGradient id="paint4_linear_101_8" x1="165.7" y1="40.98" x2="165.98" y2="9.97998" gradientUnits="userSpaceOnUse">
<stop offset="0.17" stop-color="#FBBD00"/>
<stop offset="1" stop-color="#FFEB00"/>
</linearGradient>
</defs>
</svg>
