<svg width="243" height="167" viewBox="0 0 243 167" fill="none" xmlns="http://www.w3.org/2000/svg">
<path d="M62.84 65.98C66.9821 65.98 70.34 62.6221 70.34 58.48C70.34 54.3378 66.9821 50.98 62.84 50.98C58.6978 50.98 55.34 54.3378 55.34 58.48C55.34 62.6221 58.6978 65.98 62.84 65.98Z" fill="url(#paint0_linear_101_9)"/>
<path d="M110.09 99.39V114.78C101.09 114.78 92.29 115.22 83.52 114.62C77.81 114.23 73.18 108.33 73.12 102.44C72.9733 88.5734 72.9733 74.7002 73.12 60.8202C73.2 54.4402 78.36 49.2001 84.7 48.4301C85.8486 48.3 87.004 48.24 88.1599 48.2501C134.413 48.2501 180.66 48.2501 226.9 48.2501C231.9 48.2501 236.56 49.3301 239.33 53.7201C240.959 56.2878 241.896 59.2333 242.05 62.2701C242.34 75.2701 242.26 88.2201 242.15 101.19C242.08 109.47 236.55 114.92 228.35 114.99C220.68 115.06 213.01 114.99 205.14 114.99V99.4C208.14 99.4 210.9 99.34 213.69 99.4C215.83 99.45 216.69 98.51 216.69 96.4C216.63 93.19 216.61 89.9801 216.69 86.7701C216.75 84.5201 215.81 83.4001 213.53 83.4401C212.76 83.4401 211.99 83.4401 211.22 83.4401H104.1C98.52 83.4401 98.51 83.4401 98.51 88.9601C98.51 91.4001 98.58 93.8401 98.51 96.2801C98.44 98.7201 99.51 99.5 101.77 99.42C104.42 99.31 107.09 99.39 110.09 99.39ZM228.6 63.87C228.6 62.677 228.244 61.5113 227.577 60.5216C226.911 59.5319 225.965 58.7632 224.86 58.3138C223.755 57.8645 222.541 57.7547 221.373 57.9987C220.205 58.2426 219.137 58.8293 218.304 59.6835C217.471 60.5377 216.912 61.6207 216.698 62.7943C216.483 63.9679 216.624 65.1787 217.101 66.2721C217.578 67.3655 218.37 68.2918 219.377 68.9327C220.383 69.5736 221.557 69.8998 222.75 69.87C224.293 69.7655 225.743 69.0958 226.822 67.9886C227.901 66.8815 228.535 65.4149 228.6 63.87Z" fill="#7C7C7C"/>
<path d="M200.69 43.98H114.61V20.6899C119.85 20.6899 124.96 20.5799 130.06 20.6899C133.06 20.7899 134.16 19.5601 134.06 16.5901C133.9 11.4901 134.06 6.38008 134.06 1.08008C135.42 0.980078 136.41 0.859863 137.4 0.859863C157.05 0.859863 176.7 0.930029 196.34 0.780029C199.87 0.780029 201.07 1.77989 201.01 5.38989C200.83 17.0699 200.95 28.7599 200.93 40.4399C200.9 41.5799 200.77 42.7 200.69 43.98Z" fill="#7C7C7C"/>
<path d="M160.77 127.52L181.96 106.35C183.72 108.25 185.84 110.42 187.8 112.72C188.448 113.476 188.84 114.418 188.92 115.41C188.99 128.24 188.97 141.07 188.97 154.19H126.23C126.23 149.07 126.23 143.97 126.23 138.88C126.281 138.007 126.635 137.18 127.23 136.54C133.23 130.41 139.29 124.33 145.76 117.81C151.66 123.81 157.29 129.53 162.94 135.25C166.28 138.62 169.57 142.06 173.07 145.25C173.86 145.96 175.45 145.79 176.67 146.02C176.37 144.82 176.45 143.24 175.67 142.47C170.81 137.33 165.66 132.35 160.77 127.52Z" fill="#7C7C7C"/>
<path d="M193.2 87.8899H200.91V91.79C200.91 115.04 200.85 138.29 200.98 161.54C200.98 165.17 199.98 166.46 196.21 166.44C170.39 166.29 144.56 166.35 118.74 166.39C116.2 166.39 114.23 166.31 114.24 162.84C114.33 138.43 114.3 114.02 114.31 89.6199C114.363 89.0512 114.453 88.4868 114.58 87.9299H122V92.4399C122 112.727 122 133.023 122 153.33C122 158.46 122.17 158.64 127.08 158.64C147.51 158.64 167.93 158.56 188.36 158.72C192.1 158.72 193.28 157.54 193.26 153.85C193.13 133.56 193.2 113.26 193.2 92.96V87.8899Z" fill="#7C7C7C"/>
<path d="M157.18 124.38C154.18 121.19 151.18 118.07 148.29 114.83C146.5 112.83 145.06 112.89 143.2 114.83C137.9 120.32 132.47 125.7 126.47 131.73V87.98H188.76V107.11L187.92 107.83C186.63 106.32 185.3 104.83 184.06 103.28C182.17 100.91 180.53 101.08 178.43 103.28C172.18 109.73 165.76 116.02 159.43 122.37C158.87 122.89 158.28 123.39 157.18 124.38ZM151.77 105.17C151.716 107.235 152.484 109.238 153.905 110.738C155.326 112.238 157.285 113.112 159.35 113.17C160.41 113.19 161.464 112.998 162.449 112.604C163.433 112.21 164.329 111.623 165.083 110.877C165.837 110.132 166.434 109.242 166.839 108.262C167.244 107.282 167.448 106.23 167.44 105.17C167.414 103.091 166.581 101.104 165.115 99.6296C163.65 98.1551 161.668 97.3088 159.59 97.27C157.512 97.3014 155.529 98.1463 154.067 99.6233C152.605 101.1 151.78 103.092 151.77 105.17Z" fill="#7C7C7C"/>
<path d="M129.78 16.3101H116.84L129.78 3.69995V16.3101Z" fill="#7C7C7C"/>
<path d="M110.04 32.4099V43.8999H102.5C102.5 40.8099 102.33 37.67 102.62 34.57C102.7 33.78 104.16 32.74 105.15 32.5C106.58 32.14 108.17 32.4099 110.04 32.4099Z" fill="#7C7C7C"/>
<path d="M212.34 43.9198H205.14V32.8698C213 31.3598 213.78 32.5198 212.34 43.9198Z" fill="#7C7C7C"/>
<path d="M110.03 95.3101H102.68V87.9099H110.03V95.3101Z" fill="#7C7C7C"/>
<path d="M205.15 95.28V87.8899H212.54V95.28H205.15Z" fill="#7C7C7C"/>
<path d="M160.66 100.98C161.57 102.5 163.32 104.11 163.16 105.52C163 106.93 160.68 109.11 159.68 108.93C158.17 108.65 156.14 106.72 155.94 105.27C155.76 103.98 157.76 102.38 158.8 100.92L160.66 100.98Z" fill="#7C7C7C"/>
<path d="M0.26001 65.1599L30.65 17.47L88.5399 54.3599L58.15 102.05L0.26001 65.1599ZM84.74 55.24L31.5399 21.3401L4.15002 64.3401L57.34 98.24L84.74 55.24Z" fill="#7C7C7C"/>
<path d="M17.72 48.98L32.51 25.78L80.24 56.2L60.7999 86.7C60.6699 86.24 60.5199 85.86 60.4299 85.46C59.2233 79.9933 58.0099 74.52 56.7899 69.04C56.2899 66.81 55.79 66.47 53.51 66.97C51.03 67.52 48.57 68.0899 45.95 68.6899C45.46 65.9899 44.9499 63.4299 44.5299 60.8599C43.6999 56.1699 42.8799 51.47 42.0399 46.77C41.7599 45.24 41.1499 44.8499 39.5499 45.1299L19.2999 48.77C18.8699 48.81 18.44 48.86 17.72 48.98ZM65.14 55.1399C64.3738 54.6595 63.4823 54.4174 62.5784 54.4438C61.6744 54.4703 60.7986 54.7644 60.0619 55.2888C59.3252 55.8133 58.7606 56.5444 58.4397 57.3899C58.1188 58.2354 58.0559 59.1571 58.259 60.0383C58.4622 60.9196 58.9221 61.7207 59.5808 62.3403C60.2395 62.96 61.0672 63.3703 61.9592 63.5193C62.8512 63.6683 63.7674 63.5494 64.5917 63.1775C65.416 62.8056 66.1114 62.1973 66.59 61.4299C67.2213 60.3957 67.4231 59.1556 67.1521 57.9746C66.8811 56.7936 66.159 55.7654 65.14 55.1099V55.1399Z" fill="#7C7C7C"/>
<path d="M56.25 93.76L8.48999 63.3301C10.71 59.8601 12.8599 56.4501 15.0699 53.0601C15.3323 52.7786 15.6873 52.6011 16.0699 52.5601C23.7199 51.1701 31.37 49.7999 39.14 48.3999L42.87 69.6399C41.49 69.8199 40.19 69.9599 38.87 70.1899C37.55 70.4199 36.6599 70.9 36.9399 72.26C37.2199 73.62 38.36 73.57 39.52 73.26C44.21 72.19 48.92 71.1601 53.9 70.0601C54.34 72.2601 54.7199 74.36 55.1699 76.45C55.9999 80.31 56.7099 84.21 57.7899 88C58.1365 89.0042 58.1752 90.0892 57.9008 91.1155C57.6264 92.1418 57.0515 93.0627 56.25 93.76Z" fill="#7C7C7C"/>
<path d="M160.84 114.98C166.639 114.98 171.34 110.279 171.34 104.48C171.34 98.681 166.639 93.98 160.84 93.98C155.041 93.98 150.34 98.681 150.34 104.48C150.34 110.279 155.041 114.98 160.84 114.98Z" fill="url(#paint1_linear_101_9)"/>
<defs>
<linearGradient id="paint0_linear_101_9" x1="62.78" y1="65.98" x2="62.91" y2="50.98" gradientUnits="userSpaceOnUse">
<stop offset="0.17" stop-color="#FBBD00"/>
<stop offset="1" stop-color="#FFEB00"/>
</linearGradient>
<linearGradient id="paint1_linear_101_9" x1="160.75" y1="114.98" x2="160.94" y2="93.98" gradientUnits="userSpaceOnUse">
<stop offset="0.17" stop-color="#FBBD00"/>
<stop offset="1" stop-color="#FFEB00"/>
</linearGradient>
</defs>
</svg>
