<svg width="54" height="49" viewBox="0 0 54 49" fill="none" xmlns="http://www.w3.org/2000/svg">
<path d="M26.76 41.5098H43.86C45.75 41.5098 47.63 41.5098 49.52 41.5098C50.3652 41.5271 51.1712 41.8692 51.771 42.4649C52.3708 43.0605 52.7183 43.864 52.7415 44.709C52.7646 45.554 52.4616 46.3758 51.8953 47.0034C51.3291 47.631 50.5429 48.0166 49.7 48.0801H4.10005C3.40941 48.0927 2.73146 47.8932 2.15755 47.5088C1.58363 47.1244 1.14128 46.5732 0.89003 45.9297C0.705891 45.4312 0.645247 44.8957 0.713272 44.3687C0.781296 43.8416 0.975981 43.3392 1.28065 42.9038C1.58533 42.4684 1.99094 42.1131 2.46278 41.8687C2.93462 41.6242 3.45861 41.4978 3.99001 41.5C5.71001 41.5 7.43004 41.5 9.15004 41.5H26.76V41.5098ZM40.8501 46.7798C41.2456 46.7798 41.6323 46.6627 41.9612 46.4429C42.2901 46.2231 42.5464 45.9109 42.6978 45.5454C42.8491 45.18 42.8888 44.7776 42.8116 44.3897C42.7344 44.0017 42.5439 43.6455 42.2642 43.3658C41.9845 43.086 41.6282 42.8956 41.2402 42.8184C40.8522 42.7412 40.4501 42.7808 40.0847 42.9322C39.7192 43.0835 39.4069 43.3401 39.1871 43.669C38.9673 43.9979 38.8501 44.3843 38.8501 44.7798C38.8501 45.3102 39.0607 45.8193 39.4358 46.1944C39.8109 46.5694 40.3196 46.7798 40.8501 46.7798ZM45.67 46.7798C46.2004 46.7798 46.7092 46.5694 47.0842 46.1944C47.4593 45.8193 47.67 45.3102 47.67 44.7798C47.6552 44.2734 47.4488 43.7918 47.0924 43.4317C46.736 43.0716 46.2562 42.8599 45.75 42.8399C45.4636 42.7847 45.1685 42.7929 44.8856 42.8638C44.6026 42.9347 44.3386 43.0668 44.112 43.2505C43.8854 43.4343 43.7018 43.6651 43.574 43.9273C43.4462 44.1895 43.3773 44.4764 43.3721 44.7681C43.3669 45.0598 43.4256 45.3492 43.544 45.6158C43.6625 45.8823 43.8377 46.1199 44.0576 46.3116C44.2775 46.5032 44.5367 46.6442 44.817 46.7251C45.0972 46.806 45.3918 46.8248 45.68 46.7798H45.67Z" fill="#7C7C7C"/>
<path d="M24.26 38.3998L26.85 35.89C27.29 35.46 27.73 35.0297 28.15 34.5897C28.276 34.4846 28.3773 34.353 28.4469 34.2044C28.5165 34.0558 28.5525 33.8939 28.5525 33.7298C28.5525 33.5658 28.5165 33.4038 28.4469 33.2552C28.3773 33.1066 28.276 32.9751 28.15 32.87C27.28 31.99 26.4 31.1096 25.51 30.2396C25.4024 30.1254 25.2717 30.0355 25.1267 29.9754C24.9817 29.9154 24.8256 29.8867 24.6688 29.8915C24.5119 29.8962 24.3578 29.9341 24.2167 30.0028C24.0755 30.0714 23.9506 30.1694 23.85 30.2899L20.1 34.0399L19.83 34.2899C19.1834 32.8033 19.0436 31.1451 19.4321 29.5711C19.8206 27.9972 20.7159 26.5949 21.98 25.5799C22.9861 24.7652 24.1872 24.2272 25.4649 24.0189C26.7426 23.8106 28.0525 23.939 29.2652 24.3919C30.4779 24.8449 31.5515 25.6061 32.3798 26.6009C33.2081 27.5958 33.7626 28.7896 33.9883 30.0643C34.214 31.339 34.1032 32.6507 33.6668 33.8695C33.2305 35.0883 32.4837 36.1722 31.5002 37.014C30.5167 37.8558 29.3306 38.4262 28.0591 38.6693C26.7876 38.9123 25.4746 38.8195 24.25 38.3998H24.26Z" fill="url(#paint0_linear_101_10)" stroke="#7C7C7C" stroke-miterlimit="10"/>
<path d="M42.13 7.77979C39.39 10.5098 36.68 13.2097 33.95 15.9497L34.86 16.27C35.42 16.46 35.98 16.6398 36.53 16.8398C36.8722 16.9597 37.1844 17.1523 37.445 17.4043C37.7057 17.6563 37.9087 17.9618 38.04 18.2998C38.1965 18.5829 38.2587 18.9087 38.2174 19.2295C38.1761 19.5503 38.0336 19.8498 37.8105 20.084C37.5875 20.3182 37.2955 20.4749 36.977 20.5317C36.6586 20.5886 36.3304 20.5424 36.04 20.3999C34.93 19.9799 33.83 19.5298 32.72 19.0898C32.16 18.8698 31.59 18.6699 31.05 18.4199C30.5933 18.2593 30.1985 17.9598 29.9205 17.5635C29.6426 17.1672 29.4955 16.694 29.5 16.21C29.5 14.34 29.41 12.4698 29.32 10.5898C29.2923 10.282 29.3346 9.97181 29.4437 9.68262C29.5528 9.39342 29.7259 9.13278 29.95 8.91992C31.76 7.12992 33.56 5.32002 35.36 3.52002C35.5117 3.33031 35.7043 3.17702 35.9233 3.07178C36.1422 2.96654 36.382 2.91211 36.625 2.91211C36.8679 2.91211 37.1078 2.96654 37.3268 3.07178C37.5457 3.17702 37.7382 3.33031 37.89 3.52002C38.89 4.52002 39.89 5.51971 40.82 6.44971L42.13 7.77979Z" fill="#7C7C7C"/>
<path d="M24.53 6.26978C24.3931 7.06285 24.5121 7.87899 24.87 8.59986H24.53H11.73C10.95 8.59986 10.17 8.59986 9.39 8.59986C8.79144 8.60776 8.22023 8.85156 7.80071 9.27857C7.38118 9.70558 7.14732 10.281 7.15001 10.8796C7.15001 14.9996 7.15001 19.1095 7.15001 23.2195C7.15001 28.0795 7.15001 32.9365 7.15001 37.7898V40.7898H4.74998V10.9998C4.71514 10.3753 4.81028 9.75015 5.0294 9.16431C5.24853 8.57847 5.58687 8.04479 6.023 7.59644C6.45912 7.14809 6.9836 6.79504 7.56316 6.55982C8.14272 6.3246 8.76477 6.21216 9.39 6.22974C14.39 6.17974 19.33 6.22974 24.29 6.22974L24.53 6.26978Z" fill="#7C7C7C"/>
<path d="M36.87 15.2702L41.47 10.65C43.03 9.09005 44.57 7.52012 46.14 5.98012C46.6836 5.40003 47.3877 4.99515 48.1625 4.81704C48.9373 4.63892 49.7476 4.69566 50.4899 4.98012C51.2463 5.20933 51.9178 5.65727 52.4196 6.26772C52.9215 6.87817 53.2313 7.62395 53.31 8.4103C53.4018 8.99395 53.3595 9.59056 53.1862 10.1554C53.013 10.7203 52.7133 11.2383 52.31 11.6701C51.67 12.3801 50.9399 13.0099 50.1699 13.7599C49.9099 13.4699 49.62 13.14 49.32 12.82C48.7255 12.1424 47.911 11.6965 47.02 11.5602C46.6039 11.4911 46.1776 11.518 45.7737 11.6393C45.3698 11.7606 44.999 11.973 44.69 12.2599C44.2162 12.6372 43.842 13.1246 43.6 13.6798C43.5573 13.7644 43.4866 13.8319 43.4 13.8703C42.5376 14.2575 41.8473 14.9478 41.46 15.8102C41.4321 15.8887 41.3747 15.953 41.2999 15.9899C41.1391 16.5164 40.794 16.9676 40.3278 17.2604C39.8615 17.5532 39.3054 17.6679 38.7613 17.5841C38.2172 17.5003 37.7214 17.2234 37.3649 16.8039C37.0084 16.3843 36.8149 15.8505 36.82 15.2999L36.87 15.2702Z" fill="#7C7C7C"/>
<path d="M49 19.1797C48.2541 19.5198 47.6192 20.0635 47.1682 20.748C46.7172 21.4326 46.4682 22.2302 46.45 23.0498C46.2305 23.2852 45.9459 23.4499 45.6325 23.5229C45.319 23.596 44.9909 23.5742 44.69 23.46C44.69 23.56 44.69 23.6299 44.75 23.6899C44.8319 24.0264 44.8032 24.3804 44.6681 24.6992C44.533 25.0181 44.2987 25.2848 44 25.46C43.754 25.6281 43.463 25.7178 43.165 25.7178C42.8671 25.7178 42.576 25.6281 42.33 25.46C42.1118 25.3365 41.913 25.1815 41.74 25C40.92 24.2 40.12 23.3901 39.31 22.5801C39.1576 22.4296 39.0233 22.2618 38.91 22.0801C38.7236 21.8385 38.6176 21.5447 38.6069 21.2397C38.5961 20.9348 38.6811 20.634 38.85 20.3799C39.36 19.6999 39.76 19.3798 40.69 19.5898H40.88C40.7698 19.2948 40.748 18.9742 40.8172 18.667C40.8865 18.3597 41.0438 18.0791 41.27 17.8599C41.4866 17.6202 41.7718 17.4534 42.0868 17.3818C42.4017 17.3102 42.7311 17.3375 43.03 17.46C42.9138 17.1649 42.8878 16.842 42.9555 16.5322C43.0231 16.2224 43.1814 15.9395 43.41 15.7197C43.6235 15.482 43.9041 15.3147 44.2148 15.2397C44.5254 15.1648 44.8515 15.1856 45.15 15.2998C45.15 15.2198 45.15 15.1599 45.15 15.1099C44.92 14.1699 45.27 13.78 45.94 13.27C46.1833 13.0802 46.4866 12.9839 46.7948 12.9985C47.1031 13.0132 47.3958 13.138 47.62 13.3501C48.78 14.4001 49.9 15.5099 50.96 16.6699C51.1637 16.9102 51.2754 17.2148 51.2754 17.5298C51.2754 17.8448 51.1637 18.1499 50.96 18.3901C50.7924 18.7063 50.5206 18.9542 50.1907 19.0928C49.8607 19.2313 49.4931 19.2516 49.15 19.1499L49 19.1797Z" fill="#7C7C7C"/>
<path d="M18.86 18.9201C18.16 18.9201 17.49 18.9201 16.86 18.9201C16.57 18.9201 16.48 19.0102 16.5 19.2902C16.52 19.5702 16.5 19.8401 16.5 20.1301H17.1V21.2902C17.73 21.4102 17.73 21.4101 17.72 21.9201C17.71 22.4301 17.72 22.5003 18.29 22.6003V23.7302H17.79C17.79 23.7302 17.79 23.7903 17.79 23.8103C17.79 24.3103 17.79 24.31 17.21 24.32H16.59C16.5817 24.2235 16.5817 24.1265 16.59 24.03C16.59 23.8 16.52 23.6802 16.28 23.7102C16.04 23.7402 15.95 23.6201 15.96 23.3801C15.97 23.1401 15.96 22.83 15.96 22.59C15.9 22.59 15.88 22.5202 15.86 22.5202C15.36 22.4702 15.36 22.4699 15.36 21.9699V21.9201C15.36 21.3601 15.36 21.36 14.75 21.28C14.75 21.01 14.75 20.7201 14.75 20.4401C14.75 20.1601 14.69 20.05 14.41 20.09C14.3036 20.1 14.1964 20.1 14.09 20.09C13.76 20.09 13.44 20.0902 13.52 20.5402C13.52 20.5902 13.42 20.7102 13.38 20.7102C12.93 20.6402 12.85 20.8902 12.92 21.2902L12.33 21.34V21.9001H11.76C11.76 21.7701 11.76 21.64 11.76 21.51C11.76 18.32 11.76 15.1399 11.76 11.9499C11.76 11.5999 11.86 11.5203 12.19 11.6003C12.26 11.6003 12.36 11.6999 12.35 11.7399C12.28 12.1999 12.56 12.2499 12.93 12.1999L13.01 12.8103C13.53 12.6803 13.67 12.9401 13.59 13.4001L14.17 13.4499C14.17 13.8699 14.23 14.1602 14.8 14.0002C14.7 14.5202 14.89 14.7501 15.37 14.6501C15.44 15.2001 15.44 15.2002 15.99 15.2902C15.9699 15.3993 15.9699 15.5112 15.99 15.6203C15.99 15.7103 16.13 15.8403 16.19 15.8303C16.56 15.8303 16.63 15.9702 16.6 16.2702C16.5873 16.3228 16.5873 16.3773 16.6 16.4299L17.15 16.4802C17.1285 16.6026 17.1285 16.7279 17.15 16.8503C17.15 16.9403 17.29 17.0703 17.35 17.0603C17.7 17.0603 17.8 17.1902 17.76 17.5002C17.76 17.5002 17.76 17.5904 17.76 17.6604L18.31 17.7102C18.25 18.1202 18.31 18.4202 18.9 18.2702L18.86 18.9201Z" fill="#7C7C7C"/>
<path d="M48.78 23.3501V40.8198H46.4V37.3999C46.4 33.6899 46.4 29.9698 46.4 26.2598C46.379 26.0402 46.4251 25.8193 46.5322 25.6265C46.6394 25.4336 46.8025 25.2778 47 25.1797C47.7701 24.7708 48.3926 24.1312 48.78 23.3501Z" fill="#7C7C7C"/>
<path d="M37.06 22.1299C37.42 22.6499 37.7 23.1298 38.06 23.5698C38.434 23.9727 38.8314 24.3535 39.25 24.71L35.18 28.79C34.7481 27.3956 33.9835 26.1268 32.9522 25.0938C31.9208 24.0607 30.6537 23.2941 29.26 22.8599C30.05 22.0699 30.82 21.2898 31.6 20.5298C31.6597 20.5027 31.7245 20.4888 31.79 20.4888C31.8556 20.4888 31.9203 20.5027 31.98 20.5298C32.98 20.9098 33.98 21.3 34.98 21.71C35.6279 22.0199 36.3426 22.1641 37.06 22.1299Z" fill="#7C7C7C"/>
<path d="M33.42 0.0200195C33.9304 0.0403564 34.4157 0.246834 34.7842 0.600586C35.1527 0.954338 35.3788 1.43079 35.42 1.93994C35.4311 2.1148 35.4047 2.28978 35.3426 2.45361C35.2806 2.61745 35.1842 2.76656 35.06 2.89014C33.17 4.77014 31.29 6.67004 29.39 8.54004C29.1559 8.7425 28.8671 8.87134 28.56 8.91016C28.2806 8.91142 28.004 8.85387 27.748 8.7417C27.4921 8.62952 27.2626 8.46512 27.0742 8.25879C26.8857 8.05246 26.7426 7.80897 26.654 7.54395C26.5655 7.27892 26.5334 6.99789 26.56 6.71973C26.6201 6.46103 26.7477 6.22297 26.93 6.02979C28.7833 4.16312 30.64 2.29994 32.5 0.439941C32.616 0.310184 32.7577 0.206076 32.916 0.133789C33.0744 0.0615021 33.2459 0.022683 33.42 0.0200195Z" fill="#7C7C7C"/>
<defs>
<linearGradient id="paint0_linear_101_10" x1="26.67" y1="39.2797" x2="26.67" y2="23.74" gradientUnits="userSpaceOnUse">
<stop offset="0.17" stop-color="#FBBD00"/>
<stop offset="1" stop-color="#FFEB00"/>
</linearGradient>
</defs>
</svg>
