<svg width="248" height="211" viewBox="0 0 248 211" fill="none" xmlns="http://www.w3.org/2000/svg">
<path d="M174.84 125.98C199.417 125.98 219.34 106.057 219.34 81.48C219.34 56.9033 199.417 36.98 174.84 36.98C150.263 36.98 130.34 56.9033 130.34 81.48C130.34 106.057 150.263 125.98 174.84 125.98Z" fill="url(#paint0_linear_101_7)"/>
<path d="M156.39 166.35C149.39 164.35 142.1 162.35 134.81 160.29C133.53 159.99 132.309 159.476 131.2 158.77C127.7 156.3 124.41 157.01 120.66 158.45C105.49 164.26 90.21 169.76 74.97 175.38C74.2213 175.712 73.4405 175.967 72.64 176.14C71.7291 176.32 70.7838 176.17 69.9742 175.715C69.1645 175.261 68.5435 174.532 68.2229 173.661C67.9023 172.789 67.9031 171.832 68.2252 170.961C68.5473 170.09 69.1695 169.363 69.98 168.91C70.7083 168.53 71.4719 168.222 72.26 167.99L114.74 152.32L117.4 151.32C88.27 128.5 77.4 99.14 84.72 62.66L82.3 63.5501L39.34 79.4C38.6655 79.7015 37.9618 79.9329 37.24 80.0901C36.3118 80.2683 35.3506 80.1043 34.5341 79.6285C33.7175 79.1526 33.1009 78.3971 32.7984 77.5018C32.4959 76.6064 32.5279 75.6317 32.8886 74.7581C33.2492 73.8846 33.914 73.1713 34.76 72.7501C35.4253 72.4286 36.1139 72.1578 36.82 71.94C53.2866 65.8667 69.7533 59.7833 86.22 53.69C87.1952 53.3828 88.0286 52.7373 88.57 51.8699C92.6861 42.37 98.2598 33.5709 105.09 25.7901L102.79 26.64L52.22 45.2801C51.4705 45.6127 50.6901 45.8707 49.89 46.0501C48.9798 46.2397 48.0318 46.0979 47.217 45.6502C46.4021 45.2026 45.7739 44.4783 45.4458 43.6085C45.1176 42.7386 45.111 41.7802 45.4271 40.9058C45.7433 40.0315 46.3613 39.299 47.17 38.8401C47.7484 38.524 48.3584 38.2692 48.99 38.0801C78.08 27.3501 107.15 16.56 136.28 5.91998C153.497 -0.452871 172.344 -0.922998 189.857 4.58356C207.371 10.0901 222.558 21.2612 233.03 36.3401C259.56 74.4801 249.03 127.72 209.84 152.8C204.509 156.17 198.842 158.975 192.93 161.17C164.13 172 135.23 182.54 106.36 193.17C105.9 193.34 105.45 193.53 104.97 193.66C104.485 193.868 103.962 193.975 103.434 193.976C102.906 193.977 102.383 193.871 101.897 193.665C101.411 193.459 100.972 193.156 100.605 192.776C100.239 192.396 99.953 191.946 99.7649 191.452C99.5769 190.959 99.4904 190.432 99.5108 189.905C99.5312 189.377 99.6579 188.859 99.8835 188.382C100.109 187.904 100.429 187.477 100.823 187.127C101.218 186.776 101.679 186.508 102.18 186.34C102.92 186 103.71 185.75 104.48 185.47L156.39 166.35ZM139.25 13.2C125.359 18.2975 113.292 27.3996 104.575 39.3553C95.8574 51.311 90.881 65.5833 90.2752 80.3672C89.6693 95.1512 93.4611 109.783 101.171 122.412C108.881 135.041 120.163 145.1 133.59 151.316C147.017 157.533 161.986 159.629 176.604 157.339C191.222 155.048 204.832 148.474 215.714 138.448C226.595 128.422 234.26 115.394 237.737 101.012C241.215 86.6303 240.349 71.54 235.25 57.65C228.382 39.0493 214.424 23.9278 196.431 15.5967C178.438 7.26566 157.877 6.40388 139.25 13.2Z" fill="#7C7C7C"/>
<path d="M20.76 56.8798C16.15 58.5798 11.5299 60.2999 6.90995 61.9799C4.12995 62.9799 1.99994 62.2299 1.11994 59.9799C0.23994 57.7299 1.37994 55.6 4.24994 54.54C13.5833 51.0933 22.8966 47.6599 32.1899 44.2399C34.9399 43.2399 37.0999 43.9999 37.9699 46.2399C38.8399 48.4799 37.6999 50.6099 34.8499 51.6799C30.1599 53.4299 25.46 55.1498 20.76 56.8798Z" fill="#7C7C7C"/>
<path d="M75.34 204.63C70.73 206.33 66.11 208.05 61.49 209.73C58.61 210.78 56.38 209.96 55.58 207.63C54.78 205.3 55.93 203.41 58.69 202.38C68.0233 198.926 77.3367 195.493 86.63 192.08C89.5 191.08 91.75 191.85 92.55 194.18C93.35 196.51 92.16 198.41 89.43 199.43C84.7 201.19 80 202.9 75.34 204.63Z" fill="#7C7C7C"/>
<path d="M64.71 95.2299C68.1 93.9799 71.48 92.7099 74.87 91.4899C77.6 90.4899 79.78 91.33 80.6 93.57C81.42 95.81 80.29 97.8598 77.6 98.8698C70.68 101.45 63.7533 104.003 56.82 106.53C54.09 107.53 51.91 106.69 51.09 104.45C50.27 102.21 51.38 100.18 54.09 99.1498C57.62 97.8198 61.17 96.5399 64.71 95.2299Z" fill="#7C7C7C"/>
<path d="M44.34 132.11C40.88 133.38 37.42 134.69 33.95 135.93C31.27 136.93 29.05 135.99 28.28 133.73C27.51 131.47 28.61 129.54 31.18 128.58C38.1733 125.967 45.1733 123.383 52.18 120.83C54.86 119.83 57.08 120.76 57.85 123.02C58.62 125.28 57.51 127.21 54.95 128.18C51.45 129.52 47.9 130.8 44.34 132.11Z" fill="#7C7C7C"/>
<path d="M78.15 132.24C81.61 130.97 85.07 129.67 88.54 128.42C91.24 127.42 93.45 128.31 94.24 130.56C95.03 132.81 93.89 134.82 91.16 135.83C84.24 138.41 77.3133 140.963 70.38 143.49C67.68 144.49 65.48 143.6 64.68 141.34C63.88 139.08 65.01 137.12 67.76 136.08C71.21 134.78 74.68 133.52 78.15 132.24Z" fill="#7C7C7C"/>
<path d="M21.1999 86.0902L20.2699 86.43C17.3499 87.43 15.1599 86.73 14.3199 84.43C13.4799 82.13 14.6599 80.1601 17.5699 79.0501C18.4099 78.7301 19.2499 78.3899 20.1099 78.1199C22.5099 77.3699 24.5999 78.28 25.3699 80.38C26.1399 82.48 25.1299 84.5101 22.8099 85.5001C22.2799 85.7101 21.7299 85.8902 21.1999 86.0902Z" fill="#7C7C7C"/>
<path d="M56.8 181.98C55.9821 182.358 55.1321 182.663 54.26 182.89C53.3333 183.145 52.3435 183.029 51.5012 182.566C50.6589 182.103 50.0306 181.329 49.75 180.41C49.3676 179.527 49.3507 178.528 49.7031 177.632C50.0554 176.736 50.7483 176.016 51.63 175.63C52.8824 175.014 54.1876 174.512 55.53 174.13C57.92 173.36 60.02 174.29 60.78 176.39C61.54 178.49 60.52 180.52 58.2 181.51C57.75 181.7 57.28 181.85 56.82 182.02L56.8 181.98Z" fill="#7C7C7C"/>
<path d="M140.75 145.77C142.88 140.23 142.75 138.31 140.34 137.13C137.93 135.95 136.45 136.98 133.34 142.34C120.177 135.283 109.762 124.016 103.76 110.34C106.57 108.85 111.32 108.5 109.43 103.74C107.69 99.3599 104.08 101.94 100.96 102.74C96.6468 88.4319 97.256 73.0908 102.69 59.1698C105.75 60.1698 109.36 63.1099 111.33 58.4899C113.16 54.1999 108.9 53.38 106.09 51.84C113.131 38.6418 124.4 28.1898 138.09 22.1598C139.57 24.9898 139.93 29.73 144.69 27.83C149.06 26.09 146.49 22.4798 145.69 19.3698C160.02 15.031 175.393 15.6334 189.34 21.08C188.34 24.13 185.34 27.7499 190.02 29.7199C194.32 31.5399 195.13 27.2799 196.68 24.4699C209.871 31.5173 220.318 42.7846 226.35 56.4699C223.54 57.9599 218.78 58.29 220.67 63.06C222.42 67.45 226.02 64.86 229.14 64.06C233.458 78.3673 232.849 93.7098 227.41 107.63C224.41 106.63 220.75 103.69 218.78 108.31C216.93 112.62 221.26 113.38 224.01 114.98C216.96 128.164 205.692 138.603 192.01 144.63C190.52 141.83 190.18 137.06 185.42 138.96C181.03 140.7 183.61 144.3 184.42 147.43C170.089 151.788 154.709 151.204 140.75 145.77ZM201.39 74.2299C201.373 74.5485 201.336 74.8657 201.28 75.1798C200.42 78.1798 201.12 80.0598 203.38 80.8698C205.64 81.6798 207.38 80.7 208.63 78.1C210.03 75.1 211.42 72.1698 212.74 69.1598C213.93 66.4398 213.25 64.61 210.56 63.31C207.56 61.85 204.48 60.45 201.41 59.09C198.97 58.01 196.95 58.5699 195.85 60.5099C194.75 62.4499 195.39 64.51 197.77 66.08L198.84 66.7699C190.63 69.7699 182.84 72.6999 174.97 75.4999C174.49 75.6799 173.73 75.13 173.12 74.85C170.991 73.7081 168.789 72.706 166.53 71.85C165.992 71.7676 165.488 71.5366 165.075 71.1832C164.662 70.8299 164.355 70.3682 164.19 69.85C162.84 65.98 161.38 62.15 159.96 58.31C159.51 57.07 159.05 55.83 158.49 54.31C162.34 55.51 164.33 54.8799 165.19 52.5199C166.05 50.1599 164.98 48.4399 162 47.0499C159.18 45.7299 156.36 44.3998 153.51 43.1498C150.66 41.8998 148.95 42.6299 147.64 45.2999C146.33 47.9699 145.23 50.4998 144.03 53.1098C142.38 56.6698 142.54 58.5298 144.6 59.8898C146.66 61.2498 148.6 60.6099 151.19 57.2999C153.04 62.2999 154.79 67.23 156.68 72.09C157.004 72.7196 157.114 73.437 156.995 74.1349C156.876 74.8328 156.534 75.4732 156.02 75.9599C154.468 77.6836 153.49 79.8471 153.221 82.151C152.952 84.4549 153.406 86.7853 154.52 88.82C155.572 90.929 157.242 92.6667 159.308 93.8014C161.373 94.9361 163.736 95.4135 166.08 95.1698C171.16 94.6498 175.08 91.95 176.08 87.06C176.82 83.41 178.82 82.4199 181.69 81.4899C184.97 80.4299 188.16 79.1398 191.4 77.9398L201.39 74.2299Z" fill="#7C7C7C"/>
<defs>
<linearGradient id="paint0_linear_101_7" x1="174.44" y1="125.98" x2="175.24" y2="36.99" gradientUnits="userSpaceOnUse">
<stop offset="0.17" stop-color="#FBBD00"/>
<stop offset="1" stop-color="#FFEB00"/>
</linearGradient>
</defs>
</svg>
